<?xml version="1.0" encoding="utf-8" standalone="no"?>
<!DOCTYPE svg PUBLIC "-//W3C//DTD SVG 1.1//EN"
  "http://www.w3.org/Graphics/SVG/1.1/DTD/svg11.dtd">
<svg xmlns:xlink="http://www.w3.org/1999/xlink" width="633.135pt" height="209.13125pt" viewBox="0 0 633.135 209.13125" xmlns="http://www.w3.org/2000/svg" version="1.1">
 <metadata>
  <rdf:RDF xmlns:dc="http://purl.org/dc/elements/1.1/" xmlns:cc="http://creativecommons.org/ns#" xmlns:rdf="http://www.w3.org/1999/02/22-rdf-syntax-ns#">
   <cc:Work>
    <dc:type rdf:resource="http://purl.org/dc/dcmitype/StillImage"/>
    <dc:date>2023-11-10T16:06:36.853569</dc:date>
    <dc:format>image/svg+xml</dc:format>
    <dc:creator>
     <cc:Agent>
      <dc:title>Matplotlib v3.8.0, https://matplotlib.org/</dc:title>
     </cc:Agent>
    </dc:creator>
   </cc:Work>
  </rdf:RDF>
 </metadata>
 <defs>
  <style type="text/css">*{stroke-linejoin: round; stroke-linecap: butt}</style>
 </defs>
 <g id="figure_1">
  <g id="patch_1">
   <path d="M 0 209.13125 
L 633.135 209.13125 
L 633.135 0 
L 0 0 
z
" style="fill: #ffffff"/>
  </g>
  <g id="axes_1">
   <g id="patch_2">
    <path d="M 46.085 171.19625 
L 278.935 171.19625 
L 278.935 19.02375 
L 46.085 19.02375 
z
" style="fill: #ffffff"/>
   </g>
   <g id="matplotlib.axis_1">
    <g id="xtick_1">
     <g id="line2d_1">
      <defs>
       <path id="m75e770c3d6" d="M 0 0 
L 0 3.5 
" style="stroke: #262626; stroke-width: 0.8"/>
      </defs>
      <g>
       <use xlink:href="#m75e770c3d6" x="69.120963" y="176.19625" style="fill: #262626; stroke: #262626; stroke-width: 0.8"/>
      </g>
     </g>
     <g id="text_1">
      <text style="fill: #262626; font: 8px 'Arial', sans-serif; text-anchor: middle" x="69.120963" y="188.9225" transform="rotate(-0 69.120963 188.9225)">BL</text>
     </g>
    </g>
    <g id="xtick_2">
     <g id="line2d_2">
      <g>
       <use xlink:href="#m75e770c3d6" x="131.380321" y="176.19625" style="fill: #262626; stroke: #262626; stroke-width: 0.8"/>
      </g>
     </g>
     <g id="text_2">
      <text style="fill: #262626; font: 8px 'Arial', sans-serif; text-anchor: middle" x="131.380321" y="188.9225" transform="rotate(-0 131.380321 188.9225)">M</text>
     </g>
    </g>
    <g id="xtick_3">
     <g id="line2d_3">
      <g>
       <use xlink:href="#m75e770c3d6" x="193.639679" y="176.19625" style="fill: #262626; stroke: #262626; stroke-width: 0.8"/>
      </g>
     </g>
     <g id="text_3">
      <text style="fill: #262626; font: 8px 'Arial', sans-serif; text-anchor: middle" x="193.639679" y="188.9225" transform="rotate(-0 193.639679 188.9225)">C</text>
     </g>
    </g>
    <g id="xtick_4">
     <g id="line2d_4">
      <g>
       <use xlink:href="#m75e770c3d6" x="255.899037" y="176.19625" style="fill: #262626; stroke: #262626; stroke-width: 0.8"/>
      </g>
     </g>
     <g id="text_4">
      <text style="fill: #262626; font: 8px 'Arial', sans-serif; text-anchor: middle" x="255.899037" y="188.9225" transform="rotate(-0 255.899037 188.9225)">A</text>
     </g>
    </g>
    <g id="text_5">
     <text style="fill: #262626; font: 8px 'Arial', sans-serif; text-anchor: middle" x="162.51" y="200.34125" transform="rotate(-0 162.51 200.34125)">Operation</text>
    </g>
   </g>
   <g id="matplotlib.axis_2">
    <g id="ytick_1">
     <g id="line2d_5">
      <defs>
       <path id="m3e8bda9bce" d="M 0 0 
L -3.5 0 
" style="stroke: #262626; stroke-width: 0.8"/>
      </defs>
      <g>
       <use xlink:href="#m3e8bda9bce" x="41.085" y="171.19625" style="fill: #262626; stroke: #262626; stroke-width: 0.8"/>
      </g>
     </g>
     <g id="text_6">
      <text style="fill: #262626; font: 8px 'Arial', sans-serif; text-anchor: end" x="34.085" y="174.059375" transform="rotate(-0 34.085 174.059375)">0.50</text>
     </g>
    </g>
    <g id="ytick_2">
     <g id="line2d_6">
      <g>
       <use xlink:href="#m3e8bda9bce" x="41.085" y="155.979" style="fill: #262626; stroke: #262626; stroke-width: 0.8"/>
      </g>
     </g>
     <g id="text_7">
      <text style="fill: #262626; font: 8px 'Arial', sans-serif; text-anchor: end" x="34.085" y="158.842125" transform="rotate(-0 34.085 158.842125)">0.55</text>
     </g>
    </g>
    <g id="ytick_3">
     <g id="line2d_7">
      <g>
       <use xlink:href="#m3e8bda9bce" x="41.085" y="140.76175" style="fill: #262626; stroke: #262626; stroke-width: 0.8"/>
      </g>
     </g>
     <g id="text_8">
      <text style="fill: #262626; font: 8px 'Arial', sans-serif; text-anchor: end" x="34.085" y="143.624875" transform="rotate(-0 34.085 143.624875)">0.60</text>
     </g>
    </g>
    <g id="ytick_4">
     <g id="line2d_8">
      <g>
       <use xlink:href="#m3e8bda9bce" x="41.085" y="125.5445" style="fill: #262626; stroke: #262626; stroke-width: 0.8"/>
      </g>
     </g>
     <g id="text_9">
      <text style="fill: #262626; font: 8px 'Arial', sans-serif; text-anchor: end" x="34.085" y="128.407625" transform="rotate(-0 34.085 128.407625)">0.65</text>
     </g>
    </g>
    <g id="ytick_5">
     <g id="line2d_9">
      <g>
       <use xlink:href="#m3e8bda9bce" x="41.085" y="110.32725" style="fill: #262626; stroke: #262626; stroke-width: 0.8"/>
      </g>
     </g>
     <g id="text_10">
      <text style="fill: #262626; font: 8px 'Arial', sans-serif; text-anchor: end" x="34.085" y="113.190375" transform="rotate(-0 34.085 113.190375)">0.70</text>
     </g>
    </g>
    <g id="ytick_6">
     <g id="line2d_10">
      <g>
       <use xlink:href="#m3e8bda9bce" x="41.085" y="95.11" style="fill: #262626; stroke: #262626; stroke-width: 0.8"/>
      </g>
     </g>
     <g id="text_11">
      <text style="fill: #262626; font: 8px 'Arial', sans-serif; text-anchor: end" x="34.085" y="97.973125" transform="rotate(-0 34.085 97.973125)">0.75</text>
     </g>
    </g>
    <g id="ytick_7">
     <g id="line2d_11">
      <g>
       <use xlink:href="#m3e8bda9bce" x="41.085" y="79.89275" style="fill: #262626; stroke: #262626; stroke-width: 0.8"/>
      </g>
     </g>
     <g id="text_12">
      <text style="fill: #262626; font: 8px 'Arial', sans-serif; text-anchor: end" x="34.085" y="82.755875" transform="rotate(-0 34.085 82.755875)">0.80</text>
     </g>
    </g>
    <g id="ytick_8">
     <g id="line2d_12">
      <g>
       <use xlink:href="#m3e8bda9bce" x="41.085" y="64.6755" style="fill: #262626; stroke: #262626; stroke-width: 0.8"/>
      </g>
     </g>
     <g id="text_13">
      <text style="fill: #262626; font: 8px 'Arial', sans-serif; text-anchor: end" x="34.085" y="67.538625" transform="rotate(-0 34.085 67.538625)">0.85</text>
     </g>
    </g>
    <g id="ytick_9">
     <g id="line2d_13">
      <g>
       <use xlink:href="#m3e8bda9bce" x="41.085" y="49.45825" style="fill: #262626; stroke: #262626; stroke-width: 0.8"/>
      </g>
     </g>
     <g id="text_14">
      <text style="fill: #262626; font: 8px 'Arial', sans-serif; text-anchor: end" x="34.085" y="52.321375" transform="rotate(-0 34.085 52.321375)">0.90</text>
     </g>
    </g>
    <g id="ytick_10">
     <g id="line2d_14">
      <g>
       <use xlink:href="#m3e8bda9bce" x="41.085" y="34.241" style="fill: #262626; stroke: #262626; stroke-width: 0.8"/>
      </g>
     </g>
     <g id="text_15">
      <text style="fill: #262626; font: 8px 'Arial', sans-serif; text-anchor: end" x="34.085" y="37.104125" transform="rotate(-0 34.085 37.104125)">0.95</text>
     </g>
    </g>
    <g id="ytick_11">
     <g id="line2d_15">
      <g>
       <use xlink:href="#m3e8bda9bce" x="41.085" y="19.02375" style="fill: #262626; stroke: #262626; stroke-width: 0.8"/>
      </g>
     </g>
     <g id="text_16">
      <text style="fill: #262626; font: 8px 'Arial', sans-serif; text-anchor: end" x="34.085" y="21.886875" transform="rotate(-0 34.085 21.886875)">1.00</text>
     </g>
    </g>
    <g id="text_17">
     <text style="fill: #262626; font: 8px 'Arial', sans-serif; text-anchor: middle" x="12.92625" y="95.11" transform="rotate(-90 12.92625 95.11)">IoU score</text>
    </g>
   </g>
   <g id="PathCollection_1">
    <defs>
     <path id="md400290e47" d="M 0 3 
C 0.795609 3 1.55874 2.683901 2.12132 2.12132 
C 2.683901 1.55874 3 0.795609 3 0 
C 3 -0.795609 2.683901 -1.55874 2.12132 -2.12132 
C 1.55874 -2.683901 0.795609 -3 0 -3 
C -0.795609 -3 -1.55874 -2.683901 -2.12132 -2.12132 
C -2.683901 -1.55874 -3 -0.795609 -3 0 
C -3 0.795609 -2.683901 1.55874 -2.12132 2.12132 
C -1.55874 2.683901 -0.795609 3 0 3 
z
" style="stroke: #8000ff"/>
    </defs>
    <g clip-path="url(#pb3347a450c)">
     <use xlink:href="#md400290e47" x="56.669091" y="64.395369" style="fill: #8000ff; stroke: #8000ff"/>
     <use xlink:href="#md400290e47" x="243.447166" y="75.435711" style="fill: #8000ff; stroke: #8000ff"/>
     <use xlink:href="#md400290e47" x="181.187807" y="64.77882" style="fill: #8000ff; stroke: #8000ff"/>
     <use xlink:href="#md400290e47" x="118.928449" y="65.540898" style="fill: #8000ff; stroke: #8000ff"/>
     <use xlink:href="#md400290e47" x="243.447166" y="62.491246" style="fill: #8000ff; stroke: #8000ff"/>
     <use xlink:href="#md400290e47" x="181.187807" y="64.406471" style="fill: #8000ff; stroke: #8000ff"/>
     <use xlink:href="#md400290e47" x="118.928449" y="62.02961" style="fill: #8000ff; stroke: #8000ff"/>
     <use xlink:href="#md400290e47" x="243.447166" y="65.253227" style="fill: #8000ff; stroke: #8000ff"/>
     <use xlink:href="#md400290e47" x="181.187807" y="65.041221" style="fill: #8000ff; stroke: #8000ff"/>
     <use xlink:href="#md400290e47" x="118.928449" y="70.495669" style="fill: #8000ff; stroke: #8000ff"/>
    </g>
   </g>
   <g id="PathCollection_2">
    <defs>
     <path id="md510b052ff" d="M 0 3 
C 0.795609 3 1.55874 2.683901 2.12132 2.12132 
C 2.683901 1.55874 3 0.795609 3 0 
C 3 -0.795609 2.683901 -1.55874 2.12132 -2.12132 
C 1.55874 -2.683901 0.795609 -3 0 -3 
C -0.795609 -3 -1.55874 -2.683901 -2.12132 -2.12132 
C -2.683901 -1.55874 -3 -0.795609 -3 0 
C -3 0.795609 -2.683901 1.55874 -2.12132 2.12132 
C -1.55874 2.683901 -0.795609 3 0 3 
z
" style="stroke: #00b5eb"/>
    </defs>
    <g clip-path="url(#pb3347a450c)">
     <use xlink:href="#md510b052ff" x="62.895027" y="58.46577" style="fill: #00b5eb; stroke: #00b5eb"/>
     <use xlink:href="#md510b052ff" x="249.673102" y="69.500452" style="fill: #00b5eb; stroke: #00b5eb"/>
     <use xlink:href="#md510b052ff" x="187.413743" y="59.55958" style="fill: #00b5eb; stroke: #00b5eb"/>
     <use xlink:href="#md510b052ff" x="125.154385" y="61.037912" style="fill: #00b5eb; stroke: #00b5eb"/>
     <use xlink:href="#md510b052ff" x="249.673102" y="61.100768" style="fill: #00b5eb; stroke: #00b5eb"/>
     <use xlink:href="#md510b052ff" x="187.413743" y="60.858431" style="fill: #00b5eb; stroke: #00b5eb"/>
     <use xlink:href="#md510b052ff" x="125.154385" y="58.506151" style="fill: #00b5eb; stroke: #00b5eb"/>
     <use xlink:href="#md510b052ff" x="249.673102" y="57.847927" style="fill: #00b5eb; stroke: #00b5eb"/>
     <use xlink:href="#md510b052ff" x="187.413743" y="60.557174" style="fill: #00b5eb; stroke: #00b5eb"/>
     <use xlink:href="#md510b052ff" x="125.154385" y="58.111452" style="fill: #00b5eb; stroke: #00b5eb"/>
    </g>
   </g>
   <g id="PathCollection_3">
    <defs>
     <path id="m0c52e9aaa9" d="M 0 3 
C 0.795609 3 1.55874 2.683901 2.12132 2.12132 
C 2.683901 1.55874 3 0.795609 3 0 
C 3 -0.795609 2.683901 -1.55874 2.12132 -2.12132 
C 1.55874 -2.683901 0.795609 -3 0 -3 
C -0.795609 -3 -1.55874 -2.683901 -2.12132 -2.12132 
C -2.683901 -1.55874 -3 -0.795609 -3 0 
C -3 0.795609 -2.683901 1.55874 -2.12132 2.12132 
C -1.55874 2.683901 -0.795609 3 0 3 
z
" style="stroke: #80ffb4"/>
    </defs>
    <g clip-path="url(#pb3347a450c)">
     <use xlink:href="#m0c52e9aaa9" x="69.120963" y="99.913898" style="fill: #80ffb4; stroke: #80ffb4"/>
     <use xlink:href="#m0c52e9aaa9" x="255.899037" y="105.793702" style="fill: #80ffb4; stroke: #80ffb4"/>
     <use xlink:href="#m0c52e9aaa9" x="193.639679" y="99.465268" style="fill: #80ffb4; stroke: #80ffb4"/>
     <use xlink:href="#m0c52e9aaa9" x="131.380321" y="99.345179" style="fill: #80ffb4; stroke: #80ffb4"/>
     <use xlink:href="#m0c52e9aaa9" x="255.899037" y="96.828311" style="fill: #80ffb4; stroke: #80ffb4"/>
     <use xlink:href="#m0c52e9aaa9" x="193.639679" y="100.611722" style="fill: #80ffb4; stroke: #80ffb4"/>
     <use xlink:href="#m0c52e9aaa9" x="131.380321" y="99.140918" style="fill: #80ffb4; stroke: #80ffb4"/>
     <use xlink:href="#m0c52e9aaa9" x="255.899037" y="97.323652" style="fill: #80ffb4; stroke: #80ffb4"/>
     <use xlink:href="#m0c52e9aaa9" x="193.639679" y="101.953547" style="fill: #80ffb4; stroke: #80ffb4"/>
     <use xlink:href="#m0c52e9aaa9" x="131.380321" y="113.236262" style="fill: #80ffb4; stroke: #80ffb4"/>
    </g>
   </g>
   <g id="PathCollection_4">
    <defs>
     <path id="m1e519023ca" d="M 0 3 
C 0.795609 3 1.55874 2.683901 2.12132 2.12132 
C 2.683901 1.55874 3 0.795609 3 0 
C 3 -0.795609 2.683901 -1.55874 2.12132 -2.12132 
C 1.55874 -2.683901 0.795609 -3 0 -3 
C -0.795609 -3 -1.55874 -2.683901 -2.12132 -2.12132 
C -2.683901 -1.55874 -3 -0.795609 -3 0 
C -3 0.795609 -2.683901 1.55874 -2.12132 2.12132 
C -1.55874 2.683901 -0.795609 3 0 3 
z
" style="stroke: #ffb360"/>
    </defs>
    <g clip-path="url(#pb3347a450c)">
     <use xlink:href="#m1e519023ca" x="75.346898" y="54.39692" style="fill: #ffb360; stroke: #ffb360"/>
     <use xlink:href="#m1e519023ca" x="262.124973" y="64.771619" style="fill: #ffb360; stroke: #ffb360"/>
     <use xlink:href="#m1e519023ca" x="199.865615" y="59.11447" style="fill: #ffb360; stroke: #ffb360"/>
     <use xlink:href="#m1e519023ca" x="137.606257" y="107.00205" style="fill: #ffb360; stroke: #ffb360"/>
     <use xlink:href="#m1e519023ca" x="262.124973" y="57.544983" style="fill: #ffb360; stroke: #ffb360"/>
     <use xlink:href="#m1e519023ca" x="199.865615" y="55.231649" style="fill: #ffb360; stroke: #ffb360"/>
     <use xlink:href="#m1e519023ca" x="137.606257" y="56.019305" style="fill: #ffb360; stroke: #ffb360"/>
     <use xlink:href="#m1e519023ca" x="262.124973" y="68.223206" style="fill: #ffb360; stroke: #ffb360"/>
     <use xlink:href="#m1e519023ca" x="199.865615" y="53.655813" style="fill: #ffb360; stroke: #ffb360"/>
     <use xlink:href="#m1e519023ca" x="137.606257" y="53.902105" style="fill: #ffb360; stroke: #ffb360"/>
    </g>
   </g>
   <g id="PathCollection_5">
    <defs>
     <path id="m8b33743645" d="M 0 3 
C 0.795609 3 1.55874 2.683901 2.12132 2.12132 
C 2.683901 1.55874 3 0.795609 3 0 
C 3 -0.795609 2.683901 -1.55874 2.12132 -2.12132 
C 1.55874 -2.683901 0.795609 -3 0 -3 
C -0.795609 -3 -1.55874 -2.683901 -2.12132 -2.12132 
C -2.683901 -1.55874 -3 -0.795609 -3 0 
C -3 0.795609 -2.683901 1.55874 -2.12132 2.12132 
C -1.55874 2.683901 -0.795609 3 0 3 
z
" style="stroke: #ff0000"/>
    </defs>
    <g clip-path="url(#pb3347a450c)">
     <use xlink:href="#m8b33743645" x="81.572834" y="147.232741" style="fill: #ff0000; stroke: #ff0000"/>
     <use xlink:href="#m8b33743645" x="268.350909" y="145.492716" style="fill: #ff0000; stroke: #ff0000"/>
     <use xlink:href="#m8b33743645" x="206.091551" y="155.796486" style="fill: #ff0000; stroke: #ff0000"/>
     <use xlink:href="#m8b33743645" x="143.832193" y="142.298722" style="fill: #ff0000; stroke: #ff0000"/>
     <use xlink:href="#m8b33743645" x="268.350909" y="153.79504" style="fill: #ff0000; stroke: #ff0000"/>
     <use xlink:href="#m8b33743645" x="206.091551" y="162.818698" style="fill: #ff0000; stroke: #ff0000"/>
     <use xlink:href="#m8b33743645" x="143.832193" y="160.743965" style="fill: #ff0000; stroke: #ff0000"/>
     <use xlink:href="#m8b33743645" x="268.350909" y="152.515618" style="fill: #ff0000; stroke: #ff0000"/>
     <use xlink:href="#m8b33743645" x="206.091551" y="157.829315" style="fill: #ff0000; stroke: #ff0000"/>
     <use xlink:href="#m8b33743645" x="143.832193" y="145.820114" style="fill: #ff0000; stroke: #ff0000"/>
    </g>
   </g>
   <g id="patch_3">
    <path d="M 41.085 171.19625 
L 41.085 19.02375 
" style="fill: none; stroke: #262626; stroke-width: 0.8; stroke-linejoin: miter; stroke-linecap: square"/>
   </g>
   <g id="patch_4">
    <path d="M 69.120963 176.19625 
L 255.899037 176.19625 
" style="fill: none; stroke: #262626; stroke-width: 0.8; stroke-linejoin: miter; stroke-linecap: square"/>
   </g>
   <g id="text_18">
    <text style="fill: #262626; font: 8px 'Arial', sans-serif; text-anchor: middle" x="162.51" y="13.02375" transform="rotate(-0 162.51 13.02375)">IoU for operation and 8 filters</text>
   </g>
  </g>
  <g id="axes_2">
   <g id="patch_5">
    <path d="M 328.685 171.19625 
L 561.535 171.19625 
L 561.535 19.02375 
L 328.685 19.02375 
z
" style="fill: #ffffff"/>
   </g>
   <g id="matplotlib.axis_3">
    <g id="xtick_5">
     <g id="line2d_16">
      <g>
       <use xlink:href="#m75e770c3d6" x="351.720963" y="176.19625" style="fill: #262626; stroke: #262626; stroke-width: 0.8"/>
      </g>
     </g>
     <g id="text_19">
      <text style="fill: #262626; font: 8px 'Arial', sans-serif; text-anchor: middle" x="351.720963" y="188.9225" transform="rotate(-0 351.720963 188.9225)">BL</text>
     </g>
    </g>
    <g id="xtick_6">
     <g id="line2d_17">
      <g>
       <use xlink:href="#m75e770c3d6" x="413.980321" y="176.19625" style="fill: #262626; stroke: #262626; stroke-width: 0.8"/>
      </g>
     </g>
     <g id="text_20">
      <text style="fill: #262626; font: 8px 'Arial', sans-serif; text-anchor: middle" x="413.980321" y="188.9225" transform="rotate(-0 413.980321 188.9225)">M</text>
     </g>
    </g>
    <g id="xtick_7">
     <g id="line2d_18">
      <g>
       <use xlink:href="#m75e770c3d6" x="476.239679" y="176.19625" style="fill: #262626; stroke: #262626; stroke-width: 0.8"/>
      </g>
     </g>
     <g id="text_21">
      <text style="fill: #262626; font: 8px 'Arial', sans-serif; text-anchor: middle" x="476.239679" y="188.9225" transform="rotate(-0 476.239679 188.9225)">C</text>
     </g>
    </g>
    <g id="xtick_8">
     <g id="line2d_19">
      <g>
       <use xlink:href="#m75e770c3d6" x="538.499037" y="176.19625" style="fill: #262626; stroke: #262626; stroke-width: 0.8"/>
      </g>
     </g>
     <g id="text_22">
      <text style="fill: #262626; font: 8px 'Arial', sans-serif; text-anchor: middle" x="538.499037" y="188.9225" transform="rotate(-0 538.499037 188.9225)">A</text>
     </g>
    </g>
    <g id="text_23">
     <text style="fill: #262626; font: 8px 'Arial', sans-serif; text-anchor: middle" x="445.11" y="200.34125" transform="rotate(-0 445.11 200.34125)">Operation</text>
    </g>
   </g>
   <g id="matplotlib.axis_4">
    <g id="ytick_12">
     <g id="line2d_20">
      <g>
       <use xlink:href="#m3e8bda9bce" x="323.685" y="171.19625" style="fill: #262626; stroke: #262626; stroke-width: 0.8"/>
      </g>
     </g>
     <g id="text_24">
      <text style="fill: #262626; font: 8px 'Arial', sans-serif; text-anchor: end" x="316.685" y="174.059375" transform="rotate(-0 316.685 174.059375)">0.50</text>
     </g>
    </g>
    <g id="ytick_13">
     <g id="line2d_21">
      <g>
       <use xlink:href="#m3e8bda9bce" x="323.685" y="155.979" style="fill: #262626; stroke: #262626; stroke-width: 0.8"/>
      </g>
     </g>
     <g id="text_25">
      <text style="fill: #262626; font: 8px 'Arial', sans-serif; text-anchor: end" x="316.685" y="158.842125" transform="rotate(-0 316.685 158.842125)">0.55</text>
     </g>
    </g>
    <g id="ytick_14">
     <g id="line2d_22">
      <g>
       <use xlink:href="#m3e8bda9bce" x="323.685" y="140.76175" style="fill: #262626; stroke: #262626; stroke-width: 0.8"/>
      </g>
     </g>
     <g id="text_26">
      <text style="fill: #262626; font: 8px 'Arial', sans-serif; text-anchor: end" x="316.685" y="143.624875" transform="rotate(-0 316.685 143.624875)">0.60</text>
     </g>
    </g>
    <g id="ytick_15">
     <g id="line2d_23">
      <g>
       <use xlink:href="#m3e8bda9bce" x="323.685" y="125.5445" style="fill: #262626; stroke: #262626; stroke-width: 0.8"/>
      </g>
     </g>
     <g id="text_27">
      <text style="fill: #262626; font: 8px 'Arial', sans-serif; text-anchor: end" x="316.685" y="128.407625" transform="rotate(-0 316.685 128.407625)">0.65</text>
     </g>
    </g>
    <g id="ytick_16">
     <g id="line2d_24">
      <g>
       <use xlink:href="#m3e8bda9bce" x="323.685" y="110.32725" style="fill: #262626; stroke: #262626; stroke-width: 0.8"/>
      </g>
     </g>
     <g id="text_28">
      <text style="fill: #262626; font: 8px 'Arial', sans-serif; text-anchor: end" x="316.685" y="113.190375" transform="rotate(-0 316.685 113.190375)">0.70</text>
     </g>
    </g>
    <g id="ytick_17">
     <g id="line2d_25">
      <g>
       <use xlink:href="#m3e8bda9bce" x="323.685" y="95.11" style="fill: #262626; stroke: #262626; stroke-width: 0.8"/>
      </g>
     </g>
     <g id="text_29">
      <text style="fill: #262626; font: 8px 'Arial', sans-serif; text-anchor: end" x="316.685" y="97.973125" transform="rotate(-0 316.685 97.973125)">0.75</text>
     </g>
    </g>
    <g id="ytick_18">
     <g id="line2d_26">
      <g>
       <use xlink:href="#m3e8bda9bce" x="323.685" y="79.89275" style="fill: #262626; stroke: #262626; stroke-width: 0.8"/>
      </g>
     </g>
     <g id="text_30">
      <text style="fill: #262626; font: 8px 'Arial', sans-serif; text-anchor: end" x="316.685" y="82.755875" transform="rotate(-0 316.685 82.755875)">0.80</text>
     </g>
    </g>
    <g id="ytick_19">
     <g id="line2d_27">
      <g>
       <use xlink:href="#m3e8bda9bce" x="323.685" y="64.6755" style="fill: #262626; stroke: #262626; stroke-width: 0.8"/>
      </g>
     </g>
     <g id="text_31">
      <text style="fill: #262626; font: 8px 'Arial', sans-serif; text-anchor: end" x="316.685" y="67.538625" transform="rotate(-0 316.685 67.538625)">0.85</text>
     </g>
    </g>
    <g id="ytick_20">
     <g id="line2d_28">
      <g>
       <use xlink:href="#m3e8bda9bce" x="323.685" y="49.45825" style="fill: #262626; stroke: #262626; stroke-width: 0.8"/>
      </g>
     </g>
     <g id="text_32">
      <text style="fill: #262626; font: 8px 'Arial', sans-serif; text-anchor: end" x="316.685" y="52.321375" transform="rotate(-0 316.685 52.321375)">0.90</text>
     </g>
    </g>
    <g id="ytick_21">
     <g id="line2d_29">
      <g>
       <use xlink:href="#m3e8bda9bce" x="323.685" y="34.241" style="fill: #262626; stroke: #262626; stroke-width: 0.8"/>
      </g>
     </g>
     <g id="text_33">
      <text style="fill: #262626; font: 8px 'Arial', sans-serif; text-anchor: end" x="316.685" y="37.104125" transform="rotate(-0 316.685 37.104125)">0.95</text>
     </g>
    </g>
    <g id="ytick_22">
     <g id="line2d_30">
      <g>
       <use xlink:href="#m3e8bda9bce" x="323.685" y="19.02375" style="fill: #262626; stroke: #262626; stroke-width: 0.8"/>
      </g>
     </g>
     <g id="text_34">
      <text style="fill: #262626; font: 8px 'Arial', sans-serif; text-anchor: end" x="316.685" y="21.886875" transform="rotate(-0 316.685 21.886875)">1.00</text>
     </g>
    </g>
    <g id="text_35">
     <text style="fill: #262626; font: 8px 'Arial', sans-serif; text-anchor: middle" x="295.52625" y="95.11" transform="rotate(-90 295.52625 95.11)">IoU score</text>
    </g>
   </g>
   <g id="PathCollection_6">
    <g clip-path="url(#p7859769741)">
     <use xlink:href="#md400290e47" x="339.269091" y="62.395665" style="fill: #8000ff; stroke: #8000ff"/>
     <use xlink:href="#md400290e47" x="526.047166" y="64.795056" style="fill: #8000ff; stroke: #8000ff"/>
     <use xlink:href="#md400290e47" x="463.787807" y="64.758267" style="fill: #8000ff; stroke: #8000ff"/>
     <use xlink:href="#md400290e47" x="401.528449" y="63.809888" style="fill: #8000ff; stroke: #8000ff"/>
     <use xlink:href="#md400290e47" x="526.047166" y="61.806121" style="fill: #8000ff; stroke: #8000ff"/>
     <use xlink:href="#md400290e47" x="463.787807" y="61.977057" style="fill: #8000ff; stroke: #8000ff"/>
     <use xlink:href="#md400290e47" x="401.528449" y="64.50452" style="fill: #8000ff; stroke: #8000ff"/>
     <use xlink:href="#md400290e47" x="526.047166" y="62.612896" style="fill: #8000ff; stroke: #8000ff"/>
     <use xlink:href="#md400290e47" x="463.787807" y="62.969064" style="fill: #8000ff; stroke: #8000ff"/>
     <use xlink:href="#md400290e47" x="401.528449" y="62.89975" style="fill: #8000ff; stroke: #8000ff"/>
    </g>
   </g>
   <g id="PathCollection_7">
    <g clip-path="url(#p7859769741)">
     <use xlink:href="#md510b052ff" x="345.495027" y="57.513527" style="fill: #00b5eb; stroke: #00b5eb"/>
     <use xlink:href="#md510b052ff" x="532.273102" y="58.221746" style="fill: #00b5eb; stroke: #00b5eb"/>
     <use xlink:href="#md510b052ff" x="470.013743" y="65.446041" style="fill: #00b5eb; stroke: #00b5eb"/>
     <use xlink:href="#md510b052ff" x="407.754385" y="63.821643" style="fill: #00b5eb; stroke: #00b5eb"/>
     <use xlink:href="#md510b052ff" x="532.273102" y="81.269129" style="fill: #00b5eb; stroke: #00b5eb"/>
     <use xlink:href="#md510b052ff" x="470.013743" y="56.778334" style="fill: #00b5eb; stroke: #00b5eb"/>
     <use xlink:href="#md510b052ff" x="407.754385" y="55.643654" style="fill: #00b5eb; stroke: #00b5eb"/>
     <use xlink:href="#md510b052ff" x="532.273102" y="61.154446" style="fill: #00b5eb; stroke: #00b5eb"/>
     <use xlink:href="#md510b052ff" x="470.013743" y="64.373855" style="fill: #00b5eb; stroke: #00b5eb"/>
     <use xlink:href="#md510b052ff" x="407.754385" y="63.108745" style="fill: #00b5eb; stroke: #00b5eb"/>
    </g>
   </g>
   <g id="PathCollection_8">
    <g clip-path="url(#p7859769741)">
     <use xlink:href="#m0c52e9aaa9" x="351.720963" y="93.855865" style="fill: #80ffb4; stroke: #80ffb4"/>
     <use xlink:href="#m0c52e9aaa9" x="538.499037" y="104.645888" style="fill: #80ffb4; stroke: #80ffb4"/>
     <use xlink:href="#m0c52e9aaa9" x="476.239679" y="99.217761" style="fill: #80ffb4; stroke: #80ffb4"/>
     <use xlink:href="#m0c52e9aaa9" x="413.980321" y="102.697938" style="fill: #80ffb4; stroke: #80ffb4"/>
     <use xlink:href="#m0c52e9aaa9" x="538.499037" y="102.878035" style="fill: #80ffb4; stroke: #80ffb4"/>
     <use xlink:href="#m0c52e9aaa9" x="476.239679" y="90.473501" style="fill: #80ffb4; stroke: #80ffb4"/>
     <use xlink:href="#m0c52e9aaa9" x="413.980321" y="96.190477" style="fill: #80ffb4; stroke: #80ffb4"/>
     <use xlink:href="#m0c52e9aaa9" x="538.499037" y="100.927891" style="fill: #80ffb4; stroke: #80ffb4"/>
     <use xlink:href="#m0c52e9aaa9" x="476.239679" y="101.518233" style="fill: #80ffb4; stroke: #80ffb4"/>
     <use xlink:href="#m0c52e9aaa9" x="413.980321" y="98.927696" style="fill: #80ffb4; stroke: #80ffb4"/>
    </g>
   </g>
   <g id="PathCollection_9">
    <g clip-path="url(#p7859769741)">
     <use xlink:href="#m1e519023ca" x="357.946898" y="46.001155" style="fill: #ffb360; stroke: #ffb360"/>
     <use xlink:href="#m1e519023ca" x="544.724973" y="45.757729" style="fill: #ffb360; stroke: #ffb360"/>
     <use xlink:href="#m1e519023ca" x="482.465615" y="46.596377" style="fill: #ffb360; stroke: #ffb360"/>
     <use xlink:href="#m1e519023ca" x="420.206257" y="47.000182" style="fill: #ffb360; stroke: #ffb360"/>
     <use xlink:href="#m1e519023ca" x="544.724973" y="44.588854" style="fill: #ffb360; stroke: #ffb360"/>
     <use xlink:href="#m1e519023ca" x="482.465615" y="52.346967" style="fill: #ffb360; stroke: #ffb360"/>
     <use xlink:href="#m1e519023ca" x="420.206257" y="45.476771" style="fill: #ffb360; stroke: #ffb360"/>
     <use xlink:href="#m1e519023ca" x="544.724973" y="51.659084" style="fill: #ffb360; stroke: #ffb360"/>
     <use xlink:href="#m1e519023ca" x="482.465615" y="43.345912" style="fill: #ffb360; stroke: #ffb360"/>
     <use xlink:href="#m1e519023ca" x="420.206257" y="50.791321" style="fill: #ffb360; stroke: #ffb360"/>
    </g>
   </g>
   <g id="PathCollection_10">
    <g clip-path="url(#p7859769741)">
     <use xlink:href="#m8b33743645" x="364.172834" y="138.365526" style="fill: #ff0000; stroke: #ff0000"/>
     <use xlink:href="#m8b33743645" x="550.950909" y="147.884471" style="fill: #ff0000; stroke: #ff0000"/>
     <use xlink:href="#m8b33743645" x="488.691551" y="159.041182" style="fill: #ff0000; stroke: #ff0000"/>
     <use xlink:href="#m8b33743645" x="426.432193" y="162.365424" style="fill: #ff0000; stroke: #ff0000"/>
     <use xlink:href="#m8b33743645" x="550.950909" y="156.510165" style="fill: #ff0000; stroke: #ff0000"/>
     <use xlink:href="#m8b33743645" x="488.691551" y="140.331852" style="fill: #ff0000; stroke: #ff0000"/>
     <use xlink:href="#m8b33743645" x="426.432193" y="142.536361" style="fill: #ff0000; stroke: #ff0000"/>
     <use xlink:href="#m8b33743645" x="550.950909" y="150.489465" style="fill: #ff0000; stroke: #ff0000"/>
     <use xlink:href="#m8b33743645" x="488.691551" y="145.403393" style="fill: #ff0000; stroke: #ff0000"/>
     <use xlink:href="#m8b33743645" x="426.432193" y="140.110376" style="fill: #ff0000; stroke: #ff0000"/>
    </g>
   </g>
   <g id="patch_6">
    <path d="M 323.685 171.19625 
L 323.685 19.02375 
" style="fill: none; stroke: #262626; stroke-width: 0.8; stroke-linejoin: miter; stroke-linecap: square"/>
   </g>
   <g id="patch_7">
    <path d="M 351.720963 176.19625 
L 538.499037 176.19625 
" style="fill: none; stroke: #262626; stroke-width: 0.8; stroke-linejoin: miter; stroke-linecap: square"/>
   </g>
   <g id="text_36">
    <text style="fill: #262626; font: 8px 'Arial', sans-serif; text-anchor: middle" x="445.11" y="13.02375" transform="rotate(-0 445.11 13.02375)">IoU for operation and 16 filters</text>
   </g>
  </g>
  <g id="legend_1">
   <g id="patch_8">
    <path d="M 575.1625 134.014375 
L 624.335 134.014375 
Q 625.935 134.014375 625.935 132.414375 
L 625.935 76.445625 
Q 625.935 74.845625 624.335 74.845625 
L 575.1625 74.845625 
Q 573.5625 74.845625 573.5625 76.445625 
L 573.5625 132.414375 
Q 573.5625 134.014375 575.1625 134.014375 
z
" style="fill: #ffffff; opacity: 0.8; stroke: #cccccc; stroke-linejoin: miter"/>
   </g>
   <g id="PathCollection_11">
    <g>
     <use xlink:href="#md400290e47" x="584.7625" y="81.671875" style="fill: #8000ff; stroke: #8000ff"/>
    </g>
   </g>
   <g id="text_37">
    <text style="fill: #262626; font: 8px 'Arial', sans-serif; text-anchor: start" x="599.1625" y="83.771875" transform="rotate(-0 599.1625 83.771875)">bagls</text>
   </g>
   <g id="PathCollection_12">
    <g>
     <use xlink:href="#md510b052ff" x="584.7625" y="93.081875" style="fill: #00b5eb; stroke: #00b5eb"/>
    </g>
   </g>
   <g id="text_38">
    <text style="fill: #262626; font: 8px 'Arial', sans-serif; text-anchor: start" x="599.1625" y="95.181875" transform="rotate(-0 599.1625 95.181875)">heart</text>
   </g>
   <g id="PathCollection_13">
    <g>
     <use xlink:href="#m0c52e9aaa9" x="584.7625" y="104.398125" style="fill: #80ffb4; stroke: #80ffb4"/>
    </g>
   </g>
   <g id="text_39">
    <text style="fill: #262626; font: 8px 'Arial', sans-serif; text-anchor: start" x="599.1625" y="106.498125" transform="rotate(-0 599.1625 106.498125)">lung</text>
   </g>
   <g id="PathCollection_14">
    <g>
     <use xlink:href="#m1e519023ca" x="584.7625" y="115.808125" style="fill: #ffb360; stroke: #ffb360"/>
    </g>
   </g>
   <g id="text_40">
    <text style="fill: #262626; font: 8px 'Arial', sans-serif; text-anchor: start" x="599.1625" y="117.908125" transform="rotate(-0 599.1625 117.908125)">spleen</text>
   </g>
   <g id="PathCollection_15">
    <g>
     <use xlink:href="#m8b33743645" x="584.7625" y="127.124375" style="fill: #ff0000; stroke: #ff0000"/>
    </g>
   </g>
   <g id="text_41">
    <text style="fill: #262626; font: 8px 'Arial', sans-serif; text-anchor: start" x="599.1625" y="129.224375" transform="rotate(-0 599.1625 129.224375)">colon</text>
   </g>
  </g>
 </g>
 <defs>
  <clipPath id="pb3347a450c">
   <rect x="46.085" y="19.02375" width="232.85" height="152.1725"/>
  </clipPath>
  <clipPath id="p7859769741">
   <rect x="328.685" y="19.02375" width="232.85" height="152.1725"/>
  </clipPath>
 </defs>
</svg>
