<?xml version="1.0" encoding="utf-8" standalone="no"?>
<!DOCTYPE svg PUBLIC "-//W3C//DTD SVG 1.1//EN"
  "http://www.w3.org/Graphics/SVG/1.1/DTD/svg11.dtd">
<svg xmlns:xlink="http://www.w3.org/1999/xlink" width="648pt" height="432pt" viewBox="0 0 648 432" xmlns="http://www.w3.org/2000/svg" version="1.1">
 <metadata>
  <rdf:RDF xmlns:dc="http://purl.org/dc/elements/1.1/" xmlns:cc="http://creativecommons.org/ns#" xmlns:rdf="http://www.w3.org/1999/02/22-rdf-syntax-ns#">
   <cc:Work>
    <dc:type rdf:resource="http://purl.org/dc/dcmitype/StillImage"/>
    <dc:date>2023-11-10T16:42:04.787477</dc:date>
    <dc:format>image/svg+xml</dc:format>
    <dc:creator>
     <cc:Agent>
      <dc:title>Matplotlib v3.8.0, https://matplotlib.org/</dc:title>
     </cc:Agent>
    </dc:creator>
   </cc:Work>
  </rdf:RDF>
 </metadata>
 <defs>
  <style type="text/css">*{stroke-linejoin: round; stroke-linecap: butt}</style>
 </defs>
 <g id="figure_1">
  <g id="patch_1">
   <path d="M 0 432 
L 648 432 
L 648 0 
L 0 0 
z
" style="fill: #ffffff"/>
  </g>
  <g id="axes_1">
   <g id="patch_2">
    <path d="M 45.25 190.64 
L 212.4 190.64 
L 212.4 43.47375 
L 45.25 43.47375 
z
" style="fill: #ffffff"/>
   </g>
   <g id="matplotlib.axis_1">
    <g id="xtick_1">
     <g id="line2d_1">
      <defs>
       <path id="m0a7378e9e4" d="M 0 0 
L 0 3.5 
" style="stroke: #262626; stroke-width: 0.8"/>
      </defs>
      <g>
       <use xlink:href="#m0a7378e9e4" x="67.536667" y="195.64" style="fill: #262626; stroke: #262626; stroke-width: 0.8"/>
      </g>
     </g>
     <g id="text_1">
      <text style="fill: #262626; font: 8px 'Arial', sans-serif; text-anchor: middle" x="67.536667" y="208.36625" transform="rotate(-0 67.536667 208.36625)">5</text>
     </g>
    </g>
    <g id="xtick_2">
     <g id="line2d_2">
      <g>
       <use xlink:href="#m0a7378e9e4" x="95.395" y="195.64" style="fill: #262626; stroke: #262626; stroke-width: 0.8"/>
      </g>
     </g>
     <g id="text_2">
      <text style="fill: #262626; font: 8px 'Arial', sans-serif; text-anchor: middle" x="95.395" y="208.36625" transform="rotate(-0 95.395 208.36625)">10</text>
     </g>
    </g>
    <g id="xtick_3">
     <g id="line2d_3">
      <g>
       <use xlink:href="#m0a7378e9e4" x="123.253333" y="195.64" style="fill: #262626; stroke: #262626; stroke-width: 0.8"/>
      </g>
     </g>
     <g id="text_3">
      <text style="fill: #262626; font: 8px 'Arial', sans-serif; text-anchor: middle" x="123.253333" y="208.36625" transform="rotate(-0 123.253333 208.36625)">15</text>
     </g>
    </g>
    <g id="xtick_4">
     <g id="line2d_4">
      <g>
       <use xlink:href="#m0a7378e9e4" x="151.111667" y="195.64" style="fill: #262626; stroke: #262626; stroke-width: 0.8"/>
      </g>
     </g>
     <g id="text_4">
      <text style="fill: #262626; font: 8px 'Arial', sans-serif; text-anchor: middle" x="151.111667" y="208.36625" transform="rotate(-0 151.111667 208.36625)">20</text>
     </g>
    </g>
    <g id="xtick_5">
     <g id="line2d_5">
      <g>
       <use xlink:href="#m0a7378e9e4" x="178.97" y="195.64" style="fill: #262626; stroke: #262626; stroke-width: 0.8"/>
      </g>
     </g>
     <g id="text_5">
      <text style="fill: #262626; font: 8px 'Arial', sans-serif; text-anchor: middle" x="178.97" y="208.36625" transform="rotate(-0 178.97 208.36625)">25</text>
     </g>
    </g>
    <g id="xtick_6">
     <g id="line2d_6">
      <g>
       <use xlink:href="#m0a7378e9e4" x="206.828333" y="195.64" style="fill: #262626; stroke: #262626; stroke-width: 0.8"/>
      </g>
     </g>
     <g id="text_6">
      <text style="fill: #262626; font: 8px 'Arial', sans-serif; text-anchor: middle" x="206.828333" y="208.36625" transform="rotate(-0 206.828333 208.36625)">30</text>
     </g>
    </g>
    <g id="text_7">
     <text style="fill: #262626; font: 8px 'Arial', sans-serif; text-anchor: middle" x="128.825" y="219.6825" transform="rotate(-0 128.825 219.6825)">Epochs</text>
    </g>
   </g>
   <g id="matplotlib.axis_2">
    <g id="ytick_1">
     <g id="line2d_7">
      <defs>
       <path id="m77a8b3d8ba" d="M 0 0 
L -3.5 0 
" style="stroke: #262626; stroke-width: 0.8"/>
      </defs>
      <g>
       <use xlink:href="#m77a8b3d8ba" x="40.25" y="189.16709" style="fill: #262626; stroke: #262626; stroke-width: 0.8"/>
      </g>
     </g>
     <g id="text_8">
      <text style="fill: #262626; font: 8px 'Arial', sans-serif; text-anchor: end" x="33.25" y="192.030215" transform="rotate(-0 33.25 192.030215)">0.0</text>
     </g>
    </g>
    <g id="ytick_2">
     <g id="line2d_8">
      <g>
       <use xlink:href="#m77a8b3d8ba" x="40.25" y="157.337609" style="fill: #262626; stroke: #262626; stroke-width: 0.8"/>
      </g>
     </g>
     <g id="text_9">
      <text style="fill: #262626; font: 8px 'Arial', sans-serif; text-anchor: end" x="33.25" y="160.200734" transform="rotate(-0 33.25 160.200734)">0.2</text>
     </g>
    </g>
    <g id="ytick_3">
     <g id="line2d_9">
      <g>
       <use xlink:href="#m77a8b3d8ba" x="40.25" y="125.508129" style="fill: #262626; stroke: #262626; stroke-width: 0.8"/>
      </g>
     </g>
     <g id="text_10">
      <text style="fill: #262626; font: 8px 'Arial', sans-serif; text-anchor: end" x="33.25" y="128.371254" transform="rotate(-0 33.25 128.371254)">0.4</text>
     </g>
    </g>
    <g id="ytick_4">
     <g id="line2d_10">
      <g>
       <use xlink:href="#m77a8b3d8ba" x="40.25" y="93.678649" style="fill: #262626; stroke: #262626; stroke-width: 0.8"/>
      </g>
     </g>
     <g id="text_11">
      <text style="fill: #262626; font: 8px 'Arial', sans-serif; text-anchor: end" x="33.25" y="96.541774" transform="rotate(-0 33.25 96.541774)">0.6</text>
     </g>
    </g>
    <g id="ytick_5">
     <g id="line2d_11">
      <g>
       <use xlink:href="#m77a8b3d8ba" x="40.25" y="61.849169" style="fill: #262626; stroke: #262626; stroke-width: 0.8"/>
      </g>
     </g>
     <g id="text_12">
      <text style="fill: #262626; font: 8px 'Arial', sans-serif; text-anchor: end" x="33.25" y="64.712294" transform="rotate(-0 33.25 64.712294)">0.8</text>
     </g>
    </g>
    <g id="text_13">
     <text style="fill: #262626; font: 8px 'Arial', sans-serif; text-anchor: middle" x="16.54" y="117.056875" transform="rotate(-90 16.54 117.056875)">IoU Score</text>
    </g>
   </g>
   <g id="line2d_12">
    <path d="M 45.25 183.364573 
L 50.821667 182.882382 
L 56.393333 182.280359 
L 61.965 181.206376 
L 67.536667 180.036399 
L 73.108333 177.874495 
L 78.68 175.009517 
L 84.251667 171.110231 
L 89.823333 164.960403 
L 95.395 156.578721 
L 100.966667 146.320981 
L 106.538333 130.40841 
L 112.11 115.374818 
L 117.681667 103.471164 
L 123.253333 89.390296 
L 128.825 92.384718 
L 134.396667 76.146257 
L 139.968333 74.682162 
L 145.54 65.861239 
L 151.111667 62.748319 
L 156.683333 60.171449 
L 162.255 65.153987 
L 167.826667 58.818319 
L 173.398333 56.97011 
L 178.97 56.988978 
L 184.541667 54.767033 
L 190.113333 54.507821 
L 195.685 53.577602 
L 201.256667 54.396399 
L 206.828333 53.259075 
" clip-path="url(#p44746caa96)" style="fill: none; stroke: #8000ff; stroke-width: 1.5; stroke-linecap: round"/>
   </g>
   <g id="line2d_13">
    <path d="M 45.25 183.801112 
L 50.821667 183.060498 
L 56.393333 182.414345 
L 61.965 181.79318 
L 67.536667 181.041772 
L 73.108333 179.985975 
L 78.68 178.774312 
L 84.251667 176.992052 
L 89.823333 175.288798 
L 95.395 173.417395 
L 100.966667 168.55507 
L 106.538333 164.457333 
L 112.11 149.95802 
L 117.681667 136.001899 
L 123.253333 123.499398 
L 128.825 122.614471 
L 134.396667 103.765588 
L 139.968333 97.846466 
L 145.54 81.377972 
L 151.111667 86.02156 
L 156.683333 77.731953 
L 162.255 70.393291 
L 167.826667 67.284791 
L 173.398333 63.834078 
L 178.97 60.266583 
L 184.541667 61.11637 
L 190.113333 61.793551 
L 195.685 60.339501 
L 201.256667 58.744054 
L 206.828333 53.942061 
" clip-path="url(#p44746caa96)" style="fill: none; stroke: #2adddd; stroke-width: 1.5; stroke-linecap: round"/>
   </g>
   <g id="line2d_14">
    <path d="M 45.25 183.950625 
L 50.821667 183.333006 
L 56.393333 182.557662 
L 61.965 181.718523 
L 67.536667 180.638117 
L 73.108333 179.08611 
L 78.68 177.115599 
L 84.251667 174.454078 
L 89.823333 171.322221 
L 95.395 165.153707 
L 100.966667 157.093434 
L 106.538333 148.604523 
L 112.11 135.575298 
L 117.681667 120.494827 
L 123.253333 116.474365 
L 128.825 104.457397 
L 134.396667 89.586683 
L 139.968333 81.67749 
L 145.54 74.087309 
L 151.111667 69.026825 
L 156.683333 65.480426 
L 162.255 61.234716 
L 167.826667 58.884095 
L 173.398333 56.602389 
L 178.97 54.643137 
L 184.541667 54.069552 
L 190.113333 56.051636 
L 195.685 52.170565 
L 201.256667 50.373229 
L 206.828333 50.163125 
" clip-path="url(#p44746caa96)" style="fill: none; stroke: #d4dd80; stroke-width: 1.5; stroke-linecap: round"/>
   </g>
   <g id="line2d_15">
    <path d="M 45.25 183.373693 
L 50.821667 182.27281 
L 56.393333 181.450891 
L 61.965 180.296647 
L 67.536667 179.003616 
L 73.108333 177.438614 
L 78.68 175.174687 
L 84.251667 172.02733 
L 89.823333 167.693497 
L 95.395 162.998054 
L 100.966667 156.146205 
L 106.538333 149.574888 
L 112.11 142.783315 
L 117.681667 125.731285 
L 123.253333 116.048651 
L 128.825 104.505358 
L 134.396667 105.954835 
L 139.968333 90.742021 
L 145.54 83.153965 
L 151.111667 94.075356 
L 156.683333 79.092377 
L 162.255 77.606179 
L 167.826667 68.405051 
L 173.398333 64.495749 
L 178.97 63.829031 
L 184.541667 61.055176 
L 190.113333 58.958057 
L 195.685 57.273015 
L 201.256667 55.746957 
L 206.828333 58.656319 
" clip-path="url(#p44746caa96)" style="fill: none; stroke: #ff0000; stroke-width: 1.5; stroke-linecap: round"/>
   </g>
   <g id="patch_3">
    <path d="M 40.25 189.16709 
L 40.25 61.849169 
" style="fill: none; stroke: #262626; stroke-width: 0.8; stroke-linejoin: miter; stroke-linecap: square"/>
   </g>
   <g id="patch_4">
    <path d="M 67.536667 195.64 
L 206.828333 195.64 
" style="fill: none; stroke: #262626; stroke-width: 0.8; stroke-linejoin: miter; stroke-linecap: square"/>
   </g>
   <g id="text_14">
    <text style="fill: #262626; font: 8px 'Arial', sans-serif; text-anchor: middle" x="128.825" y="37.47375" transform="rotate(-0 128.825 37.47375)">Add with 8 filters</text>
   </g>
   <g id="legend_1">
    <g id="patch_5">
     <path d="M 149.360122 186.475 
L 206.569 186.475 
Q 208.235 186.475 208.235 184.809 
L 208.235 138.509819 
Q 208.235 136.843819 206.569 136.843819 
L 149.360122 136.843819 
Q 147.694122 136.843819 147.694122 138.509819 
L 147.694122 184.809 
Q 147.694122 186.475 149.360122 186.475 
z
" style="fill: #ffffff; opacity: 0.8; stroke: #cccccc; stroke-linejoin: miter"/>
    </g>
    <g id="line2d_16">
     <path d="M 151.026122 143.222777 
L 159.356122 143.222777 
L 167.686122 143.222777 
" style="fill: none; stroke: #8000ff; stroke-width: 1.5; stroke-linecap: round"/>
    </g>
    <g id="text_15">
     <text style="fill: #262626; font: 8.33px 'Arial', sans-serif; text-anchor: start" x="174.350122" y="146.138277" transform="rotate(-0 174.350122 146.138277)">Nests: 1</text>
    </g>
    <g id="line2d_17">
     <path d="M 151.026122 155.005822 
L 159.356122 155.005822 
L 167.686122 155.005822 
" style="fill: none; stroke: #2adddd; stroke-width: 1.5; stroke-linecap: round"/>
    </g>
    <g id="text_16">
     <text style="fill: #262626; font: 8.33px 'Arial', sans-serif; text-anchor: start" x="174.350122" y="157.921322" transform="rotate(-0 174.350122 157.921322)">Nests: 2</text>
    </g>
    <g id="line2d_18">
     <path d="M 151.026122 166.788867 
L 159.356122 166.788867 
L 167.686122 166.788867 
" style="fill: none; stroke: #d4dd80; stroke-width: 1.5; stroke-linecap: round"/>
    </g>
    <g id="text_17">
     <text style="fill: #262626; font: 8.33px 'Arial', sans-serif; text-anchor: start" x="174.350122" y="169.704367" transform="rotate(-0 174.350122 169.704367)">Nests: 4</text>
    </g>
    <g id="line2d_19">
     <path d="M 151.026122 178.571912 
L 159.356122 178.571912 
L 167.686122 178.571912 
" style="fill: none; stroke: #ff0000; stroke-width: 1.5; stroke-linecap: round"/>
    </g>
    <g id="text_18">
     <text style="fill: #262626; font: 8.33px 'Arial', sans-serif; text-anchor: start" x="174.350122" y="181.487412" transform="rotate(-0 174.350122 181.487412)">Nests: 8</text>
    </g>
   </g>
  </g>
  <g id="axes_2">
   <g id="patch_6">
    <path d="M 257.65 190.64 
L 424.8 190.64 
L 424.8 43.47375 
L 257.65 43.47375 
z
" style="fill: #ffffff"/>
   </g>
   <g id="matplotlib.axis_3">
    <g id="xtick_7">
     <g id="line2d_20">
      <g>
       <use xlink:href="#m0a7378e9e4" x="279.936667" y="195.64" style="fill: #262626; stroke: #262626; stroke-width: 0.8"/>
      </g>
     </g>
     <g id="text_19">
      <text style="fill: #262626; font: 8px 'Arial', sans-serif; text-anchor: middle" x="279.936667" y="208.36625" transform="rotate(-0 279.936667 208.36625)">5</text>
     </g>
    </g>
    <g id="xtick_8">
     <g id="line2d_21">
      <g>
       <use xlink:href="#m0a7378e9e4" x="307.795" y="195.64" style="fill: #262626; stroke: #262626; stroke-width: 0.8"/>
      </g>
     </g>
     <g id="text_20">
      <text style="fill: #262626; font: 8px 'Arial', sans-serif; text-anchor: middle" x="307.795" y="208.36625" transform="rotate(-0 307.795 208.36625)">10</text>
     </g>
    </g>
    <g id="xtick_9">
     <g id="line2d_22">
      <g>
       <use xlink:href="#m0a7378e9e4" x="335.653333" y="195.64" style="fill: #262626; stroke: #262626; stroke-width: 0.8"/>
      </g>
     </g>
     <g id="text_21">
      <text style="fill: #262626; font: 8px 'Arial', sans-serif; text-anchor: middle" x="335.653333" y="208.36625" transform="rotate(-0 335.653333 208.36625)">15</text>
     </g>
    </g>
    <g id="xtick_10">
     <g id="line2d_23">
      <g>
       <use xlink:href="#m0a7378e9e4" x="363.511667" y="195.64" style="fill: #262626; stroke: #262626; stroke-width: 0.8"/>
      </g>
     </g>
     <g id="text_22">
      <text style="fill: #262626; font: 8px 'Arial', sans-serif; text-anchor: middle" x="363.511667" y="208.36625" transform="rotate(-0 363.511667 208.36625)">20</text>
     </g>
    </g>
    <g id="xtick_11">
     <g id="line2d_24">
      <g>
       <use xlink:href="#m0a7378e9e4" x="391.37" y="195.64" style="fill: #262626; stroke: #262626; stroke-width: 0.8"/>
      </g>
     </g>
     <g id="text_23">
      <text style="fill: #262626; font: 8px 'Arial', sans-serif; text-anchor: middle" x="391.37" y="208.36625" transform="rotate(-0 391.37 208.36625)">25</text>
     </g>
    </g>
    <g id="xtick_12">
     <g id="line2d_25">
      <g>
       <use xlink:href="#m0a7378e9e4" x="419.228333" y="195.64" style="fill: #262626; stroke: #262626; stroke-width: 0.8"/>
      </g>
     </g>
     <g id="text_24">
      <text style="fill: #262626; font: 8px 'Arial', sans-serif; text-anchor: middle" x="419.228333" y="208.36625" transform="rotate(-0 419.228333 208.36625)">30</text>
     </g>
    </g>
    <g id="text_25">
     <text style="fill: #262626; font: 8px 'Arial', sans-serif; text-anchor: middle" x="341.225" y="219.6825" transform="rotate(-0 341.225 219.6825)">Epochs</text>
    </g>
   </g>
   <g id="matplotlib.axis_4">
    <g id="ytick_6">
     <g id="line2d_26">
      <g>
       <use xlink:href="#m77a8b3d8ba" x="252.65" y="188.952448" style="fill: #262626; stroke: #262626; stroke-width: 0.8"/>
      </g>
     </g>
     <g id="text_26">
      <text style="fill: #262626; font: 8px 'Arial', sans-serif; text-anchor: end" x="245.65" y="191.815573" transform="rotate(-0 245.65 191.815573)">0.0</text>
     </g>
    </g>
    <g id="ytick_7">
     <g id="line2d_27">
      <g>
       <use xlink:href="#m77a8b3d8ba" x="252.65" y="157.60175" style="fill: #262626; stroke: #262626; stroke-width: 0.8"/>
      </g>
     </g>
     <g id="text_27">
      <text style="fill: #262626; font: 8px 'Arial', sans-serif; text-anchor: end" x="245.65" y="160.464875" transform="rotate(-0 245.65 160.464875)">0.2</text>
     </g>
    </g>
    <g id="ytick_8">
     <g id="line2d_28">
      <g>
       <use xlink:href="#m77a8b3d8ba" x="252.65" y="126.251053" style="fill: #262626; stroke: #262626; stroke-width: 0.8"/>
      </g>
     </g>
     <g id="text_28">
      <text style="fill: #262626; font: 8px 'Arial', sans-serif; text-anchor: end" x="245.65" y="129.114178" transform="rotate(-0 245.65 129.114178)">0.4</text>
     </g>
    </g>
    <g id="ytick_9">
     <g id="line2d_29">
      <g>
       <use xlink:href="#m77a8b3d8ba" x="252.65" y="94.900355" style="fill: #262626; stroke: #262626; stroke-width: 0.8"/>
      </g>
     </g>
     <g id="text_29">
      <text style="fill: #262626; font: 8px 'Arial', sans-serif; text-anchor: end" x="245.65" y="97.76348" transform="rotate(-0 245.65 97.76348)">0.6</text>
     </g>
    </g>
    <g id="ytick_10">
     <g id="line2d_30">
      <g>
       <use xlink:href="#m77a8b3d8ba" x="252.65" y="63.549658" style="fill: #262626; stroke: #262626; stroke-width: 0.8"/>
      </g>
     </g>
     <g id="text_30">
      <text style="fill: #262626; font: 8px 'Arial', sans-serif; text-anchor: end" x="245.65" y="66.412783" transform="rotate(-0 245.65 66.412783)">0.8</text>
     </g>
    </g>
    <g id="text_31">
     <text style="fill: #262626; font: 8px 'Arial', sans-serif; text-anchor: middle" x="228.94" y="117.056875" transform="rotate(-90 228.94 117.056875)">IoU Score</text>
    </g>
   </g>
   <g id="line2d_31">
    <path d="M 257.65 183.950625 
L 263.221667 183.256741 
L 268.793333 182.697148 
L 274.365 182.009814 
L 279.936667 181.155954 
L 285.508333 179.867283 
L 291.08 178.182682 
L 296.651667 176.097016 
L 302.223333 172.030335 
L 307.795 166.016018 
L 313.366667 157.749611 
L 318.938333 147.218847 
L 324.51 136.723558 
L 330.081667 119.257383 
L 335.653333 102.584032 
L 341.225 90.187688 
L 346.796667 84.369534 
L 352.368333 77.720448 
L 357.94 69.989462 
L 363.511667 70.87308 
L 369.083333 63.800989 
L 374.655 61.3232 
L 380.226667 58.86022 
L 385.798333 56.897991 
L 391.37 55.618949 
L 396.941667 54.459369 
L 402.513333 53.76413 
L 408.085 53.484972 
L 413.656667 54.646953 
L 419.228333 52.205556 
" clip-path="url(#pb25a724ed5)" style="fill: none; stroke: #8000ff; stroke-width: 1.5; stroke-linecap: round"/>
   </g>
   <g id="line2d_32">
    <path d="M 257.65 183.742309 
L 263.221667 183.08672 
L 268.793333 182.650685 
L 274.365 182.111388 
L 279.936667 181.471949 
L 285.508333 180.699904 
L 291.08 179.739205 
L 296.651667 178.478004 
L 302.223333 177.047234 
L 307.795 175.328359 
L 313.366667 172.64302 
L 318.938333 169.238652 
L 324.51 165.322607 
L 330.081667 161.350069 
L 335.653333 154.837072 
L 341.225 148.639645 
L 346.796667 140.327253 
L 352.368333 131.772997 
L 357.94 136.062402 
L 363.511667 121.714098 
L 369.083333 115.970152 
L 374.655 105.849007 
L 380.226667 100.043634 
L 385.798333 96.250496 
L 391.37 111.362773 
L 396.941667 97.382896 
L 402.513333 96.701578 
L 408.085 85.381733 
L 413.656667 80.716964 
L 419.228333 77.512356 
" clip-path="url(#pb25a724ed5)" style="fill: none; stroke: #2adddd; stroke-width: 1.5; stroke-linecap: round"/>
   </g>
   <g id="line2d_33">
    <path d="M 257.65 183.92726 
L 263.221667 183.226899 
L 268.793333 182.577465 
L 274.365 182.035448 
L 279.936667 181.266935 
L 285.508333 180.2924 
L 291.08 178.521291 
L 296.651667 175.998199 
L 302.223333 172.737917 
L 307.795 167.508558 
L 313.366667 160.839921 
L 318.938333 150.523683 
L 324.51 140.667852 
L 330.081667 124.302295 
L 335.653333 116.86308 
L 341.225 101.351762 
L 346.796667 99.679407 
L 352.368333 86.624571 
L 357.94 75.940319 
L 363.511667 75.720491 
L 369.083333 68.573971 
L 374.655 64.72894 
L 380.226667 60.629455 
L 385.798333 58.216023 
L 391.37 59.659291 
L 396.941667 56.574454 
L 402.513333 54.3649 
L 408.085 53.110645 
L 413.656667 52.232913 
L 419.228333 51.253593 
" clip-path="url(#pb25a724ed5)" style="fill: none; stroke: #d4dd80; stroke-width: 1.5; stroke-linecap: round"/>
   </g>
   <g id="line2d_34">
    <path d="M 257.65 183.402821 
L 263.221667 182.771585 
L 268.793333 182.197108 
L 274.365 181.406023 
L 279.936667 180.391499 
L 285.508333 179.048506 
L 291.08 177.031902 
L 296.651667 174.116742 
L 302.223333 169.871895 
L 307.795 163.952097 
L 313.366667 151.797652 
L 318.938333 137.786538 
L 324.51 122.510515 
L 330.081667 106.326559 
L 335.653333 93.411067 
L 341.225 101.142745 
L 346.796667 85.753566 
L 352.368333 80.378225 
L 357.94 70.157622 
L 363.511667 69.257382 
L 369.083333 63.156698 
L 374.655 59.587432 
L 380.226667 57.037607 
L 385.798333 54.96794 
L 391.37 54.308653 
L 396.941667 52.55917 
L 402.513333 51.779907 
L 408.085 51.198701 
L 413.656667 50.67647 
L 419.228333 50.163125 
" clip-path="url(#pb25a724ed5)" style="fill: none; stroke: #ff0000; stroke-width: 1.5; stroke-linecap: round"/>
   </g>
   <g id="patch_7">
    <path d="M 252.65 188.952448 
L 252.65 63.549658 
" style="fill: none; stroke: #262626; stroke-width: 0.8; stroke-linejoin: miter; stroke-linecap: square"/>
   </g>
   <g id="patch_8">
    <path d="M 279.936667 195.64 
L 419.228333 195.64 
" style="fill: none; stroke: #262626; stroke-width: 0.8; stroke-linejoin: miter; stroke-linecap: square"/>
   </g>
   <g id="text_32">
    <text style="fill: #262626; font: 8px 'Arial', sans-serif; text-anchor: middle" x="341.225" y="37.47375" transform="rotate(-0 341.225 37.47375)">Multiply with 8 filters</text>
   </g>
   <g id="legend_2">
    <g id="patch_9">
     <path d="M 361.760122 186.475 
L 418.969 186.475 
Q 420.635 186.475 420.635 184.809 
L 420.635 138.509819 
Q 420.635 136.843819 418.969 136.843819 
L 361.760122 136.843819 
Q 360.094122 136.843819 360.094122 138.509819 
L 360.094122 184.809 
Q 360.094122 186.475 361.760122 186.475 
z
" style="fill: #ffffff; opacity: 0.8; stroke: #cccccc; stroke-linejoin: miter"/>
    </g>
    <g id="line2d_35">
     <path d="M 363.426122 143.222777 
L 371.756122 143.222777 
L 380.086122 143.222777 
" style="fill: none; stroke: #8000ff; stroke-width: 1.5; stroke-linecap: round"/>
    </g>
    <g id="text_33">
     <text style="fill: #262626; font: 8.33px 'Arial', sans-serif; text-anchor: start" x="386.750122" y="146.138277" transform="rotate(-0 386.750122 146.138277)">Nests: 1</text>
    </g>
    <g id="line2d_36">
     <path d="M 363.426122 155.005822 
L 371.756122 155.005822 
L 380.086122 155.005822 
" style="fill: none; stroke: #2adddd; stroke-width: 1.5; stroke-linecap: round"/>
    </g>
    <g id="text_34">
     <text style="fill: #262626; font: 8.33px 'Arial', sans-serif; text-anchor: start" x="386.750122" y="157.921322" transform="rotate(-0 386.750122 157.921322)">Nests: 2</text>
    </g>
    <g id="line2d_37">
     <path d="M 363.426122 166.788867 
L 371.756122 166.788867 
L 380.086122 166.788867 
" style="fill: none; stroke: #d4dd80; stroke-width: 1.5; stroke-linecap: round"/>
    </g>
    <g id="text_35">
     <text style="fill: #262626; font: 8.33px 'Arial', sans-serif; text-anchor: start" x="386.750122" y="169.704367" transform="rotate(-0 386.750122 169.704367)">Nests: 4</text>
    </g>
    <g id="line2d_38">
     <path d="M 363.426122 178.571912 
L 371.756122 178.571912 
L 380.086122 178.571912 
" style="fill: none; stroke: #ff0000; stroke-width: 1.5; stroke-linecap: round"/>
    </g>
    <g id="text_36">
     <text style="fill: #262626; font: 8.33px 'Arial', sans-serif; text-anchor: start" x="386.750122" y="181.487412" transform="rotate(-0 386.750122 181.487412)">Nests: 8</text>
    </g>
   </g>
  </g>
  <g id="axes_3">
   <g id="patch_10">
    <path d="M 470.05 190.64 
L 637.2 190.64 
L 637.2 43.47375 
L 470.05 43.47375 
z
" style="fill: #ffffff"/>
   </g>
   <g id="matplotlib.axis_5">
    <g id="xtick_13">
     <g id="line2d_39">
      <g>
       <use xlink:href="#m0a7378e9e4" x="492.336667" y="195.64" style="fill: #262626; stroke: #262626; stroke-width: 0.8"/>
      </g>
     </g>
     <g id="text_37">
      <text style="fill: #262626; font: 8px 'Arial', sans-serif; text-anchor: middle" x="492.336667" y="208.36625" transform="rotate(-0 492.336667 208.36625)">5</text>
     </g>
    </g>
    <g id="xtick_14">
     <g id="line2d_40">
      <g>
       <use xlink:href="#m0a7378e9e4" x="520.195" y="195.64" style="fill: #262626; stroke: #262626; stroke-width: 0.8"/>
      </g>
     </g>
     <g id="text_38">
      <text style="fill: #262626; font: 8px 'Arial', sans-serif; text-anchor: middle" x="520.195" y="208.36625" transform="rotate(-0 520.195 208.36625)">10</text>
     </g>
    </g>
    <g id="xtick_15">
     <g id="line2d_41">
      <g>
       <use xlink:href="#m0a7378e9e4" x="548.053333" y="195.64" style="fill: #262626; stroke: #262626; stroke-width: 0.8"/>
      </g>
     </g>
     <g id="text_39">
      <text style="fill: #262626; font: 8px 'Arial', sans-serif; text-anchor: middle" x="548.053333" y="208.36625" transform="rotate(-0 548.053333 208.36625)">15</text>
     </g>
    </g>
    <g id="xtick_16">
     <g id="line2d_42">
      <g>
       <use xlink:href="#m0a7378e9e4" x="575.911667" y="195.64" style="fill: #262626; stroke: #262626; stroke-width: 0.8"/>
      </g>
     </g>
     <g id="text_40">
      <text style="fill: #262626; font: 8px 'Arial', sans-serif; text-anchor: middle" x="575.911667" y="208.36625" transform="rotate(-0 575.911667 208.36625)">20</text>
     </g>
    </g>
    <g id="xtick_17">
     <g id="line2d_43">
      <g>
       <use xlink:href="#m0a7378e9e4" x="603.77" y="195.64" style="fill: #262626; stroke: #262626; stroke-width: 0.8"/>
      </g>
     </g>
     <g id="text_41">
      <text style="fill: #262626; font: 8px 'Arial', sans-serif; text-anchor: middle" x="603.77" y="208.36625" transform="rotate(-0 603.77 208.36625)">25</text>
     </g>
    </g>
    <g id="xtick_18">
     <g id="line2d_44">
      <g>
       <use xlink:href="#m0a7378e9e4" x="631.628333" y="195.64" style="fill: #262626; stroke: #262626; stroke-width: 0.8"/>
      </g>
     </g>
     <g id="text_42">
      <text style="fill: #262626; font: 8px 'Arial', sans-serif; text-anchor: middle" x="631.628333" y="208.36625" transform="rotate(-0 631.628333 208.36625)">30</text>
     </g>
    </g>
    <g id="text_43">
     <text style="fill: #262626; font: 8px 'Arial', sans-serif; text-anchor: middle" x="553.625" y="219.6825" transform="rotate(-0 553.625 219.6825)">Epochs</text>
    </g>
   </g>
   <g id="matplotlib.axis_6">
    <g id="ytick_11">
     <g id="line2d_45">
      <g>
       <use xlink:href="#m77a8b3d8ba" x="465.05" y="189.275163" style="fill: #262626; stroke: #262626; stroke-width: 0.8"/>
      </g>
     </g>
     <g id="text_44">
      <text style="fill: #262626; font: 8px 'Arial', sans-serif; text-anchor: end" x="458.05" y="192.138288" transform="rotate(-0 458.05 192.138288)">0.0</text>
     </g>
    </g>
    <g id="ytick_12">
     <g id="line2d_46">
      <g>
       <use xlink:href="#m77a8b3d8ba" x="465.05" y="157.880263" style="fill: #262626; stroke: #262626; stroke-width: 0.8"/>
      </g>
     </g>
     <g id="text_45">
      <text style="fill: #262626; font: 8px 'Arial', sans-serif; text-anchor: end" x="458.05" y="160.743388" transform="rotate(-0 458.05 160.743388)">0.2</text>
     </g>
    </g>
    <g id="ytick_13">
     <g id="line2d_47">
      <g>
       <use xlink:href="#m77a8b3d8ba" x="465.05" y="126.485363" style="fill: #262626; stroke: #262626; stroke-width: 0.8"/>
      </g>
     </g>
     <g id="text_46">
      <text style="fill: #262626; font: 8px 'Arial', sans-serif; text-anchor: end" x="458.05" y="129.348488" transform="rotate(-0 458.05 129.348488)">0.4</text>
     </g>
    </g>
    <g id="ytick_14">
     <g id="line2d_48">
      <g>
       <use xlink:href="#m77a8b3d8ba" x="465.05" y="95.090463" style="fill: #262626; stroke: #262626; stroke-width: 0.8"/>
      </g>
     </g>
     <g id="text_47">
      <text style="fill: #262626; font: 8px 'Arial', sans-serif; text-anchor: end" x="458.05" y="97.953588" transform="rotate(-0 458.05 97.953588)">0.6</text>
     </g>
    </g>
    <g id="ytick_15">
     <g id="line2d_49">
      <g>
       <use xlink:href="#m77a8b3d8ba" x="465.05" y="63.695564" style="fill: #262626; stroke: #262626; stroke-width: 0.8"/>
      </g>
     </g>
     <g id="text_48">
      <text style="fill: #262626; font: 8px 'Arial', sans-serif; text-anchor: end" x="458.05" y="66.558689" transform="rotate(-0 458.05 66.558689)">0.8</text>
     </g>
    </g>
    <g id="text_49">
     <text style="fill: #262626; font: 8px 'Arial', sans-serif; text-anchor: middle" x="441.34" y="117.056875" transform="rotate(-90 441.34 117.056875)">IoU Score</text>
    </g>
   </g>
   <g id="line2d_50">
    <path d="M 470.05 183.65628 
L 475.621667 182.653748 
L 481.193333 181.661937 
L 486.765 180.528766 
L 492.336667 178.73501 
L 497.908333 177.652085 
L 503.48 172.671601 
L 509.051667 167.423718 
L 514.623333 159.358746 
L 520.195 148.396337 
L 525.766667 133.313988 
L 531.338333 117.685192 
L 536.91 108.736315 
L 542.481667 99.291946 
L 548.053333 85.192698 
L 553.625 76.60169 
L 559.196667 69.142975 
L 564.768333 66.135339 
L 570.34 62.810689 
L 575.911667 59.537031 
L 581.483333 57.497128 
L 587.055 57.271722 
L 592.626667 56.338973 
L 598.198333 53.877563 
L 603.77 53.223756 
L 609.341667 51.971953 
L 614.913333 53.075719 
L 620.485 52.138272 
L 626.056667 52.389071 
L 631.628333 50.545372 
" clip-path="url(#pa994f8bd5c)" style="fill: none; stroke: #8000ff; stroke-width: 1.5; stroke-linecap: round"/>
   </g>
   <g id="line2d_51">
    <path d="M 470.05 183.950625 
L 475.621667 183.382158 
L 481.193333 182.803164 
L 486.765 182.107684 
L 492.336667 181.493569 
L 497.908333 180.403858 
L 503.48 178.001338 
L 509.051667 175.192292 
L 514.623333 170.92772 
L 520.195 165.635802 
L 525.766667 157.242619 
L 531.338333 151.127548 
L 536.91 135.708036 
L 542.481667 123.363194 
L 548.053333 106.203731 
L 553.625 97.444598 
L 559.196667 88.799631 
L 564.768333 81.745946 
L 570.34 89.113857 
L 575.911667 76.915579 
L 581.483333 75.083173 
L 587.055 66.761404 
L 592.626667 62.463659 
L 598.198333 59.137868 
L 603.77 57.90226 
L 609.341667 55.955163 
L 614.913333 66.878294 
L 620.485 58.200393 
L 626.056667 54.450232 
L 631.628333 52.978581 
" clip-path="url(#pa994f8bd5c)" style="fill: none; stroke: #2adddd; stroke-width: 1.5; stroke-linecap: round"/>
   </g>
   <g id="line2d_52">
    <path d="M 470.05 183.006809 
L 475.621667 181.811319 
L 481.193333 180.699083 
L 486.765 179.204559 
L 492.336667 177.385701 
L 497.908333 174.707354 
L 503.48 171.241658 
L 509.051667 166.072664 
L 514.623333 161.435132 
L 520.195 149.899781 
L 525.766667 139.915009 
L 531.338333 128.186886 
L 536.91 117.359663 
L 542.481667 106.932436 
L 548.053333 97.993098 
L 553.625 97.451353 
L 559.196667 81.742148 
L 564.768333 73.573404 
L 570.34 71.454383 
L 575.911667 66.424424 
L 581.483333 62.428676 
L 587.055 60.706198 
L 592.626667 58.805285 
L 598.198333 56.432677 
L 603.77 56.025935 
L 609.341667 57.063299 
L 614.913333 55.520053 
L 620.485 53.432816 
L 626.056667 51.67572 
L 631.628333 50.975907 
" clip-path="url(#pa994f8bd5c)" style="fill: none; stroke: #d4dd80; stroke-width: 1.5; stroke-linecap: round"/>
   </g>
   <g id="line2d_53">
    <path d="M 470.05 183.866342 
L 475.621667 183.00758 
L 481.193333 182.159868 
L 486.765 181.193911 
L 492.336667 179.933452 
L 497.908333 178.053397 
L 503.48 175.435145 
L 509.051667 171.54718 
L 514.623333 166.026282 
L 520.195 158.686703 
L 525.766667 148.547326 
L 531.338333 134.989 
L 536.91 119.155533 
L 542.481667 104.455327 
L 548.053333 91.209197 
L 553.625 83.846881 
L 559.196667 80.990697 
L 564.768333 73.626642 
L 570.34 69.480527 
L 575.911667 68.474638 
L 581.483333 60.925176 
L 587.055 60.154629 
L 592.626667 56.778378 
L 598.198333 55.308289 
L 603.77 54.026957 
L 609.341667 53.320427 
L 614.913333 52.498382 
L 620.485 51.547892 
L 626.056667 50.886563 
L 631.628333 50.163125 
" clip-path="url(#pa994f8bd5c)" style="fill: none; stroke: #ff0000; stroke-width: 1.5; stroke-linecap: round"/>
   </g>
   <g id="patch_11">
    <path d="M 465.05 189.275163 
L 465.05 63.695564 
" style="fill: none; stroke: #262626; stroke-width: 0.8; stroke-linejoin: miter; stroke-linecap: square"/>
   </g>
   <g id="patch_12">
    <path d="M 492.336667 195.64 
L 631.628333 195.64 
" style="fill: none; stroke: #262626; stroke-width: 0.8; stroke-linejoin: miter; stroke-linecap: square"/>
   </g>
   <g id="text_50">
    <text style="fill: #262626; font: 8px 'Arial', sans-serif; text-anchor: middle" x="553.625" y="37.47375" transform="rotate(-0 553.625 37.47375)">Concatenate with 8 filters</text>
   </g>
   <g id="legend_3">
    <g id="patch_13">
     <path d="M 574.160122 186.475 
L 631.369 186.475 
Q 633.035 186.475 633.035 184.809 
L 633.035 138.509819 
Q 633.035 136.843819 631.369 136.843819 
L 574.160122 136.843819 
Q 572.494122 136.843819 572.494122 138.509819 
L 572.494122 184.809 
Q 572.494122 186.475 574.160122 186.475 
z
" style="fill: #ffffff; opacity: 0.8; stroke: #cccccc; stroke-linejoin: miter"/>
    </g>
    <g id="line2d_54">
     <path d="M 575.826122 143.222777 
L 584.156122 143.222777 
L 592.486122 143.222777 
" style="fill: none; stroke: #8000ff; stroke-width: 1.5; stroke-linecap: round"/>
    </g>
    <g id="text_51">
     <text style="fill: #262626; font: 8.33px 'Arial', sans-serif; text-anchor: start" x="599.150122" y="146.138277" transform="rotate(-0 599.150122 146.138277)">Nests: 1</text>
    </g>
    <g id="line2d_55">
     <path d="M 575.826122 155.005822 
L 584.156122 155.005822 
L 592.486122 155.005822 
" style="fill: none; stroke: #2adddd; stroke-width: 1.5; stroke-linecap: round"/>
    </g>
    <g id="text_52">
     <text style="fill: #262626; font: 8.33px 'Arial', sans-serif; text-anchor: start" x="599.150122" y="157.921322" transform="rotate(-0 599.150122 157.921322)">Nests: 2</text>
    </g>
    <g id="line2d_56">
     <path d="M 575.826122 166.788867 
L 584.156122 166.788867 
L 592.486122 166.788867 
" style="fill: none; stroke: #d4dd80; stroke-width: 1.5; stroke-linecap: round"/>
    </g>
    <g id="text_53">
     <text style="fill: #262626; font: 8.33px 'Arial', sans-serif; text-anchor: start" x="599.150122" y="169.704367" transform="rotate(-0 599.150122 169.704367)">Nests: 4</text>
    </g>
    <g id="line2d_57">
     <path d="M 575.826122 178.571912 
L 584.156122 178.571912 
L 592.486122 178.571912 
" style="fill: none; stroke: #ff0000; stroke-width: 1.5; stroke-linecap: round"/>
    </g>
    <g id="text_54">
     <text style="fill: #262626; font: 8.33px 'Arial', sans-serif; text-anchor: start" x="599.150122" y="181.487412" transform="rotate(-0 599.150122 181.487412)">Nests: 8</text>
    </g>
   </g>
  </g>
  <g id="axes_4">
   <g id="patch_14">
    <path d="M 45.25 390.8 
L 212.4 390.8 
L 212.4 243.63375 
L 45.25 243.63375 
z
" style="fill: #ffffff"/>
   </g>
   <g id="matplotlib.axis_7">
    <g id="xtick_19">
     <g id="line2d_58">
      <g>
       <use xlink:href="#m0a7378e9e4" x="67.536667" y="395.8" style="fill: #262626; stroke: #262626; stroke-width: 0.8"/>
      </g>
     </g>
     <g id="text_55">
      <text style="fill: #262626; font: 8px 'Arial', sans-serif; text-anchor: middle" x="67.536667" y="408.52625" transform="rotate(-0 67.536667 408.52625)">5</text>
     </g>
    </g>
    <g id="xtick_20">
     <g id="line2d_59">
      <g>
       <use xlink:href="#m0a7378e9e4" x="95.395" y="395.8" style="fill: #262626; stroke: #262626; stroke-width: 0.8"/>
      </g>
     </g>
     <g id="text_56">
      <text style="fill: #262626; font: 8px 'Arial', sans-serif; text-anchor: middle" x="95.395" y="408.52625" transform="rotate(-0 95.395 408.52625)">10</text>
     </g>
    </g>
    <g id="xtick_21">
     <g id="line2d_60">
      <g>
       <use xlink:href="#m0a7378e9e4" x="123.253333" y="395.8" style="fill: #262626; stroke: #262626; stroke-width: 0.8"/>
      </g>
     </g>
     <g id="text_57">
      <text style="fill: #262626; font: 8px 'Arial', sans-serif; text-anchor: middle" x="123.253333" y="408.52625" transform="rotate(-0 123.253333 408.52625)">15</text>
     </g>
    </g>
    <g id="xtick_22">
     <g id="line2d_61">
      <g>
       <use xlink:href="#m0a7378e9e4" x="151.111667" y="395.8" style="fill: #262626; stroke: #262626; stroke-width: 0.8"/>
      </g>
     </g>
     <g id="text_58">
      <text style="fill: #262626; font: 8px 'Arial', sans-serif; text-anchor: middle" x="151.111667" y="408.52625" transform="rotate(-0 151.111667 408.52625)">20</text>
     </g>
    </g>
    <g id="xtick_23">
     <g id="line2d_62">
      <g>
       <use xlink:href="#m0a7378e9e4" x="178.97" y="395.8" style="fill: #262626; stroke: #262626; stroke-width: 0.8"/>
      </g>
     </g>
     <g id="text_59">
      <text style="fill: #262626; font: 8px 'Arial', sans-serif; text-anchor: middle" x="178.97" y="408.52625" transform="rotate(-0 178.97 408.52625)">25</text>
     </g>
    </g>
    <g id="xtick_24">
     <g id="line2d_63">
      <g>
       <use xlink:href="#m0a7378e9e4" x="206.828333" y="395.8" style="fill: #262626; stroke: #262626; stroke-width: 0.8"/>
      </g>
     </g>
     <g id="text_60">
      <text style="fill: #262626; font: 8px 'Arial', sans-serif; text-anchor: middle" x="206.828333" y="408.52625" transform="rotate(-0 206.828333 408.52625)">30</text>
     </g>
    </g>
    <g id="text_61">
     <text style="fill: #262626; font: 8px 'Arial', sans-serif; text-anchor: middle" x="128.825" y="419.8425" transform="rotate(-0 128.825 419.8425)">Epochs</text>
    </g>
   </g>
   <g id="matplotlib.axis_8">
    <g id="ytick_16">
     <g id="line2d_64">
      <g>
       <use xlink:href="#m77a8b3d8ba" x="40.25" y="389.884178" style="fill: #262626; stroke: #262626; stroke-width: 0.8"/>
      </g>
     </g>
     <g id="text_62">
      <text style="fill: #262626; font: 8px 'Arial', sans-serif; text-anchor: end" x="33.25" y="392.747303" transform="rotate(-0 33.25 392.747303)">0.0</text>
     </g>
    </g>
    <g id="ytick_17">
     <g id="line2d_65">
      <g>
       <use xlink:href="#m77a8b3d8ba" x="40.25" y="359.412319" style="fill: #262626; stroke: #262626; stroke-width: 0.8"/>
      </g>
     </g>
     <g id="text_63">
      <text style="fill: #262626; font: 8px 'Arial', sans-serif; text-anchor: end" x="33.25" y="362.275444" transform="rotate(-0 33.25 362.275444)">0.2</text>
     </g>
    </g>
    <g id="ytick_18">
     <g id="line2d_66">
      <g>
       <use xlink:href="#m77a8b3d8ba" x="40.25" y="328.94046" style="fill: #262626; stroke: #262626; stroke-width: 0.8"/>
      </g>
     </g>
     <g id="text_64">
      <text style="fill: #262626; font: 8px 'Arial', sans-serif; text-anchor: end" x="33.25" y="331.803585" transform="rotate(-0 33.25 331.803585)">0.4</text>
     </g>
    </g>
    <g id="ytick_19">
     <g id="line2d_67">
      <g>
       <use xlink:href="#m77a8b3d8ba" x="40.25" y="298.4686" style="fill: #262626; stroke: #262626; stroke-width: 0.8"/>
      </g>
     </g>
     <g id="text_65">
      <text style="fill: #262626; font: 8px 'Arial', sans-serif; text-anchor: end" x="33.25" y="301.331725" transform="rotate(-0 33.25 301.331725)">0.6</text>
     </g>
    </g>
    <g id="ytick_20">
     <g id="line2d_68">
      <g>
       <use xlink:href="#m77a8b3d8ba" x="40.25" y="267.996741" style="fill: #262626; stroke: #262626; stroke-width: 0.8"/>
      </g>
     </g>
     <g id="text_66">
      <text style="fill: #262626; font: 8px 'Arial', sans-serif; text-anchor: end" x="33.25" y="270.859866" transform="rotate(-0 33.25 270.859866)">0.8</text>
     </g>
    </g>
    <g id="text_67">
     <text style="fill: #262626; font: 8px 'Arial', sans-serif; text-anchor: middle" x="16.54" y="317.216875" transform="rotate(-90 16.54 317.216875)">IoU Score</text>
    </g>
   </g>
   <g id="line2d_69">
    <path d="M 45.25 383.319574 
L 50.821667 381.807393 
L 56.393333 379.641612 
L 61.965 376.588033 
L 67.536667 371.302682 
L 73.108333 363.955004 
L 78.68 353.33036 
L 84.251667 342.947244 
L 89.823333 319.390618 
L 95.395 305.786825 
L 100.966667 289.817866 
L 106.538333 299.458479 
L 112.11 282.431073 
L 117.681667 273.080291 
L 123.253333 267.63899 
L 128.825 266.676206 
L 134.396667 261.207298 
L 139.968333 265.391462 
L 145.54 258.77572 
L 151.111667 256.679033 
L 156.683333 255.871831 
L 162.255 254.721309 
L 167.826667 256.47859 
L 173.398333 253.142212 
L 178.97 252.440916 
L 184.541667 252.091222 
L 190.113333 251.539795 
L 195.685 251.916606 
L 201.256667 251.272486 
L 206.828333 251.030142 
" clip-path="url(#pca07881dd0)" style="fill: none; stroke: #8000ff; stroke-width: 1.5; stroke-linecap: round"/>
   </g>
   <g id="line2d_70">
    <path d="M 45.25 381.818669 
L 50.821667 379.284145 
L 56.393333 376.372837 
L 61.965 371.086127 
L 67.536667 363.929179 
L 73.108333 350.87977 
L 78.68 336.632038 
L 84.251667 321.253392 
L 89.823333 301.862968 
L 95.395 289.704912 
L 100.966667 278.588848 
L 106.538333 272.453434 
L 112.11 277.012058 
L 117.681667 271.058997 
L 123.253333 270.411136 
L 128.825 269.28507 
L 134.396667 262.68353 
L 139.968333 267.308411 
L 145.54 262.545122 
L 151.111667 261.355405 
L 156.683333 255.678707 
L 162.255 255.071567 
L 167.826667 254.836596 
L 173.398333 254.175549 
L 178.97 252.653238 
L 184.541667 252.741154 
L 190.113333 251.859494 
L 195.685 252.127892 
L 201.256667 250.90828 
L 206.828333 251.454394 
" clip-path="url(#pca07881dd0)" style="fill: none; stroke: #2adddd; stroke-width: 1.5; stroke-linecap: round"/>
   </g>
   <g id="line2d_71">
    <path d="M 45.25 382.345791 
L 50.821667 380.780198 
L 56.393333 378.510689 
L 61.965 374.196154 
L 67.536667 367.779653 
L 73.108333 358.748328 
L 78.68 342.330304 
L 84.251667 325.572492 
L 89.823333 310.334315 
L 95.395 300.841719 
L 100.966667 292.518805 
L 106.538333 289.374834 
L 112.11 274.472067 
L 117.681667 268.464791 
L 123.253333 263.663005 
L 128.825 260.399632 
L 134.396667 258.97352 
L 139.968333 256.642771 
L 145.54 257.174901 
L 151.111667 256.2197 
L 156.683333 255.46664 
L 162.255 253.939126 
L 167.826667 254.942248 
L 173.398333 252.160631 
L 178.97 251.976861 
L 184.541667 252.56623 
L 190.113333 252.367285 
L 195.685 250.988595 
L 201.256667 250.503208 
L 206.828333 250.323125 
" clip-path="url(#pca07881dd0)" style="fill: none; stroke: #d4dd80; stroke-width: 1.5; stroke-linecap: round"/>
   </g>
   <g id="line2d_72">
    <path d="M 45.25 384.110625 
L 50.821667 383.180064 
L 56.393333 382.319551 
L 61.965 381.28547 
L 67.536667 378.727587 
L 73.108333 375.036752 
L 78.68 369.924888 
L 84.251667 360.726152 
L 89.823333 360.725979 
L 95.395 338.439185 
L 100.966667 343.464879 
L 106.538333 311.213106 
L 112.11 299.871734 
L 117.681667 292.73099 
L 123.253333 285.019931 
L 128.825 285.707296 
L 134.396667 277.263075 
L 139.968333 272.401162 
L 145.54 272.755515 
L 151.111667 269.056866 
L 156.683333 263.010376 
L 162.255 266.063907 
L 167.826667 265.14248 
L 173.398333 260.865359 
L 178.97 258.151406 
L 184.541667 257.398764 
L 190.113333 257.879675 
L 195.685 255.976638 
L 201.256667 258.607534 
L 206.828333 253.862579 
" clip-path="url(#pca07881dd0)" style="fill: none; stroke: #ff0000; stroke-width: 1.5; stroke-linecap: round"/>
   </g>
   <g id="patch_15">
    <path d="M 40.25 389.884178 
L 40.25 267.996741 
" style="fill: none; stroke: #262626; stroke-width: 0.8; stroke-linejoin: miter; stroke-linecap: square"/>
   </g>
   <g id="patch_16">
    <path d="M 67.536667 395.8 
L 206.828333 395.8 
" style="fill: none; stroke: #262626; stroke-width: 0.8; stroke-linejoin: miter; stroke-linecap: square"/>
   </g>
   <g id="text_68">
    <text style="fill: #262626; font: 8px 'Arial', sans-serif; text-anchor: middle" x="128.825" y="237.63375" transform="rotate(-0 128.825 237.63375)">Add with 16 filters</text>
   </g>
   <g id="legend_4">
    <g id="patch_17">
     <path d="M 149.360122 386.635 
L 206.569 386.635 
Q 208.235 386.635 208.235 384.969 
L 208.235 338.669819 
Q 208.235 337.003819 206.569 337.003819 
L 149.360122 337.003819 
Q 147.694122 337.003819 147.694122 338.669819 
L 147.694122 384.969 
Q 147.694122 386.635 149.360122 386.635 
z
" style="fill: #ffffff; opacity: 0.8; stroke: #cccccc; stroke-linejoin: miter"/>
    </g>
    <g id="line2d_73">
     <path d="M 151.026122 343.382777 
L 159.356122 343.382777 
L 167.686122 343.382777 
" style="fill: none; stroke: #8000ff; stroke-width: 1.5; stroke-linecap: round"/>
    </g>
    <g id="text_69">
     <text style="fill: #262626; font: 8.33px 'Arial', sans-serif; text-anchor: start" x="174.350122" y="346.298277" transform="rotate(-0 174.350122 346.298277)">Nests: 1</text>
    </g>
    <g id="line2d_74">
     <path d="M 151.026122 355.165822 
L 159.356122 355.165822 
L 167.686122 355.165822 
" style="fill: none; stroke: #2adddd; stroke-width: 1.5; stroke-linecap: round"/>
    </g>
    <g id="text_70">
     <text style="fill: #262626; font: 8.33px 'Arial', sans-serif; text-anchor: start" x="174.350122" y="358.081322" transform="rotate(-0 174.350122 358.081322)">Nests: 2</text>
    </g>
    <g id="line2d_75">
     <path d="M 151.026122 366.948867 
L 159.356122 366.948867 
L 167.686122 366.948867 
" style="fill: none; stroke: #d4dd80; stroke-width: 1.5; stroke-linecap: round"/>
    </g>
    <g id="text_71">
     <text style="fill: #262626; font: 8.33px 'Arial', sans-serif; text-anchor: start" x="174.350122" y="369.864367" transform="rotate(-0 174.350122 369.864367)">Nests: 4</text>
    </g>
    <g id="line2d_76">
     <path d="M 151.026122 378.731912 
L 159.356122 378.731912 
L 167.686122 378.731912 
" style="fill: none; stroke: #ff0000; stroke-width: 1.5; stroke-linecap: round"/>
    </g>
    <g id="text_72">
     <text style="fill: #262626; font: 8.33px 'Arial', sans-serif; text-anchor: start" x="174.350122" y="381.647412" transform="rotate(-0 174.350122 381.647412)">Nests: 8</text>
    </g>
   </g>
  </g>
  <g id="axes_5">
   <g id="patch_18">
    <path d="M 257.65 390.8 
L 424.8 390.8 
L 424.8 243.63375 
L 257.65 243.63375 
z
" style="fill: #ffffff"/>
   </g>
   <g id="matplotlib.axis_9">
    <g id="xtick_25">
     <g id="line2d_77">
      <g>
       <use xlink:href="#m0a7378e9e4" x="279.936667" y="395.8" style="fill: #262626; stroke: #262626; stroke-width: 0.8"/>
      </g>
     </g>
     <g id="text_73">
      <text style="fill: #262626; font: 8px 'Arial', sans-serif; text-anchor: middle" x="279.936667" y="408.52625" transform="rotate(-0 279.936667 408.52625)">5</text>
     </g>
    </g>
    <g id="xtick_26">
     <g id="line2d_78">
      <g>
       <use xlink:href="#m0a7378e9e4" x="307.795" y="395.8" style="fill: #262626; stroke: #262626; stroke-width: 0.8"/>
      </g>
     </g>
     <g id="text_74">
      <text style="fill: #262626; font: 8px 'Arial', sans-serif; text-anchor: middle" x="307.795" y="408.52625" transform="rotate(-0 307.795 408.52625)">10</text>
     </g>
    </g>
    <g id="xtick_27">
     <g id="line2d_79">
      <g>
       <use xlink:href="#m0a7378e9e4" x="335.653333" y="395.8" style="fill: #262626; stroke: #262626; stroke-width: 0.8"/>
      </g>
     </g>
     <g id="text_75">
      <text style="fill: #262626; font: 8px 'Arial', sans-serif; text-anchor: middle" x="335.653333" y="408.52625" transform="rotate(-0 335.653333 408.52625)">15</text>
     </g>
    </g>
    <g id="xtick_28">
     <g id="line2d_80">
      <g>
       <use xlink:href="#m0a7378e9e4" x="363.511667" y="395.8" style="fill: #262626; stroke: #262626; stroke-width: 0.8"/>
      </g>
     </g>
     <g id="text_76">
      <text style="fill: #262626; font: 8px 'Arial', sans-serif; text-anchor: middle" x="363.511667" y="408.52625" transform="rotate(-0 363.511667 408.52625)">20</text>
     </g>
    </g>
    <g id="xtick_29">
     <g id="line2d_81">
      <g>
       <use xlink:href="#m0a7378e9e4" x="391.37" y="395.8" style="fill: #262626; stroke: #262626; stroke-width: 0.8"/>
      </g>
     </g>
     <g id="text_77">
      <text style="fill: #262626; font: 8px 'Arial', sans-serif; text-anchor: middle" x="391.37" y="408.52625" transform="rotate(-0 391.37 408.52625)">25</text>
     </g>
    </g>
    <g id="xtick_30">
     <g id="line2d_82">
      <g>
       <use xlink:href="#m0a7378e9e4" x="419.228333" y="395.8" style="fill: #262626; stroke: #262626; stroke-width: 0.8"/>
      </g>
     </g>
     <g id="text_78">
      <text style="fill: #262626; font: 8px 'Arial', sans-serif; text-anchor: middle" x="419.228333" y="408.52625" transform="rotate(-0 419.228333 408.52625)">30</text>
     </g>
    </g>
    <g id="text_79">
     <text style="fill: #262626; font: 8px 'Arial', sans-serif; text-anchor: middle" x="341.225" y="419.8425" transform="rotate(-0 341.225 419.8425)">Epochs</text>
    </g>
   </g>
   <g id="matplotlib.axis_10">
    <g id="ytick_21">
     <g id="line2d_83">
      <g>
       <use xlink:href="#m77a8b3d8ba" x="252.65" y="390.361665" style="fill: #262626; stroke: #262626; stroke-width: 0.8"/>
      </g>
     </g>
     <g id="text_80">
      <text style="fill: #262626; font: 8px 'Arial', sans-serif; text-anchor: end" x="245.65" y="393.22479" transform="rotate(-0 245.65 393.22479)">0.0</text>
     </g>
    </g>
    <g id="ytick_22">
     <g id="line2d_84">
      <g>
       <use xlink:href="#m77a8b3d8ba" x="252.65" y="359.687854" style="fill: #262626; stroke: #262626; stroke-width: 0.8"/>
      </g>
     </g>
     <g id="text_81">
      <text style="fill: #262626; font: 8px 'Arial', sans-serif; text-anchor: end" x="245.65" y="362.550979" transform="rotate(-0 245.65 362.550979)">0.2</text>
     </g>
    </g>
    <g id="ytick_23">
     <g id="line2d_85">
      <g>
       <use xlink:href="#m77a8b3d8ba" x="252.65" y="329.014044" style="fill: #262626; stroke: #262626; stroke-width: 0.8"/>
      </g>
     </g>
     <g id="text_82">
      <text style="fill: #262626; font: 8px 'Arial', sans-serif; text-anchor: end" x="245.65" y="331.877169" transform="rotate(-0 245.65 331.877169)">0.4</text>
     </g>
    </g>
    <g id="ytick_24">
     <g id="line2d_86">
      <g>
       <use xlink:href="#m77a8b3d8ba" x="252.65" y="298.340233" style="fill: #262626; stroke: #262626; stroke-width: 0.8"/>
      </g>
     </g>
     <g id="text_83">
      <text style="fill: #262626; font: 8px 'Arial', sans-serif; text-anchor: end" x="245.65" y="301.203358" transform="rotate(-0 245.65 301.203358)">0.6</text>
     </g>
    </g>
    <g id="ytick_25">
     <g id="line2d_87">
      <g>
       <use xlink:href="#m77a8b3d8ba" x="252.65" y="267.666423" style="fill: #262626; stroke: #262626; stroke-width: 0.8"/>
      </g>
     </g>
     <g id="text_84">
      <text style="fill: #262626; font: 8px 'Arial', sans-serif; text-anchor: end" x="245.65" y="270.529548" transform="rotate(-0 245.65 270.529548)">0.8</text>
     </g>
    </g>
    <g id="text_85">
     <text style="fill: #262626; font: 8px 'Arial', sans-serif; text-anchor: middle" x="228.94" y="317.216875" transform="rotate(-90 228.94 317.216875)">IoU Score</text>
    </g>
   </g>
   <g id="line2d_88">
    <path d="M 257.65 383.658139 
L 263.221667 382.470021 
L 268.793333 380.82784 
L 274.365 378.470187 
L 279.936667 374.810642 
L 285.508333 368.855561 
L 291.08 359.561189 
L 296.651667 346.508448 
L 302.223333 330.404649 
L 307.795 312.736157 
L 313.366667 295.722312 
L 318.938333 286.923794 
L 324.51 284.509558 
L 330.081667 269.439334 
L 335.653333 273.31377 
L 341.225 263.379054 
L 346.796667 269.757303 
L 352.368333 263.656224 
L 357.94 264.522931 
L 363.511667 262.715307 
L 369.083333 262.310339 
L 374.655 258.011691 
L 380.226667 255.516004 
L 385.798333 253.79358 
L 391.37 253.74332 
L 396.941667 253.672126 
L 402.513333 252.200096 
L 408.085 252.782639 
L 413.656667 251.879951 
L 419.228333 251.475577 
" clip-path="url(#p319de34933)" style="fill: none; stroke: #8000ff; stroke-width: 1.5; stroke-linecap: round"/>
   </g>
   <g id="line2d_89">
    <path d="M 257.65 382.838838 
L 263.221667 380.952865 
L 268.793333 378.60964 
L 274.365 375.349036 
L 279.936667 368.351105 
L 285.508333 357.974594 
L 291.08 341.026624 
L 296.651667 335.171187 
L 302.223333 309.449731 
L 307.795 295.65035 
L 313.366667 287.352018 
L 318.938333 276.996546 
L 324.51 277.130332 
L 330.081667 265.806755 
L 335.653333 262.761929 
L 341.225 261.041461 
L 346.796667 258.607863 
L 352.368333 256.992193 
L 357.94 255.709841 
L 363.511667 254.531839 
L 369.083333 254.614048 
L 374.655 254.431419 
L 380.226667 252.645461 
L 385.798333 252.177014 
L 391.37 251.89306 
L 396.941667 252.230775 
L 402.513333 251.680931 
L 408.085 251.377141 
L 413.656667 251.09082 
L 419.228333 251.095848 
" clip-path="url(#p319de34933)" style="fill: none; stroke: #2adddd; stroke-width: 1.5; stroke-linecap: round"/>
   </g>
   <g id="line2d_90">
    <path d="M 257.65 383.356699 
L 263.221667 381.76353 
L 268.793333 379.352579 
L 274.365 375.886022 
L 279.936667 370.167212 
L 285.508333 360.272444 
L 291.08 345.843157 
L 296.651667 330.301579 
L 302.223333 313.265679 
L 307.795 303.641052 
L 313.366667 289.000836 
L 318.938333 311.369338 
L 324.51 277.115065 
L 330.081667 277.077073 
L 335.653333 274.777564 
L 341.225 267.519828 
L 346.796667 261.850374 
L 352.368333 257.978544 
L 357.94 258.187455 
L 363.511667 256.969074 
L 369.083333 254.833362 
L 374.655 253.393529 
L 380.226667 254.094838 
L 385.798333 253.472091 
L 391.37 252.646156 
L 396.941667 252.181822 
L 402.513333 251.186303 
L 408.085 251.27599 
L 413.656667 251.554495 
L 419.228333 250.323125 
" clip-path="url(#p319de34933)" style="fill: none; stroke: #d4dd80; stroke-width: 1.5; stroke-linecap: round"/>
   </g>
   <g id="line2d_91">
    <path d="M 257.65 384.110625 
L 263.221667 382.676028 
L 268.793333 381.243952 
L 274.365 379.576014 
L 279.936667 376.641593 
L 285.508333 372.09979 
L 291.08 368.016558 
L 296.651667 356.196461 
L 302.223333 346.085132 
L 307.795 329.096193 
L 313.366667 311.766161 
L 318.938333 320.806601 
L 324.51 313.926524 
L 330.081667 291.821996 
L 335.653333 298.006263 
L 341.225 279.379042 
L 346.796667 269.671849 
L 352.368333 267.545333 
L 357.94 263.140287 
L 363.511667 259.885407 
L 369.083333 258.106863 
L 374.655 256.703742 
L 380.226667 263.855272 
L 385.798333 261.432864 
L 391.37 261.058702 
L 396.941667 258.254124 
L 402.513333 254.843683 
L 408.085 253.615668 
L 413.656667 253.071538 
L 419.228333 253.001294 
" clip-path="url(#p319de34933)" style="fill: none; stroke: #ff0000; stroke-width: 1.5; stroke-linecap: round"/>
   </g>
   <g id="patch_19">
    <path d="M 252.65 390.361665 
L 252.65 267.666423 
" style="fill: none; stroke: #262626; stroke-width: 0.8; stroke-linejoin: miter; stroke-linecap: square"/>
   </g>
   <g id="patch_20">
    <path d="M 279.936667 395.8 
L 419.228333 395.8 
" style="fill: none; stroke: #262626; stroke-width: 0.8; stroke-linejoin: miter; stroke-linecap: square"/>
   </g>
   <g id="text_86">
    <text style="fill: #262626; font: 8px 'Arial', sans-serif; text-anchor: middle" x="341.225" y="237.63375" transform="rotate(-0 341.225 237.63375)">Multiply with 16 filters</text>
   </g>
   <g id="legend_5">
    <g id="patch_21">
     <path d="M 361.760122 386.635 
L 418.969 386.635 
Q 420.635 386.635 420.635 384.969 
L 420.635 338.669819 
Q 420.635 337.003819 418.969 337.003819 
L 361.760122 337.003819 
Q 360.094122 337.003819 360.094122 338.669819 
L 360.094122 384.969 
Q 360.094122 386.635 361.760122 386.635 
z
" style="fill: #ffffff; opacity: 0.8; stroke: #cccccc; stroke-linejoin: miter"/>
    </g>
    <g id="line2d_92">
     <path d="M 363.426122 343.382777 
L 371.756122 343.382777 
L 380.086122 343.382777 
" style="fill: none; stroke: #8000ff; stroke-width: 1.5; stroke-linecap: round"/>
    </g>
    <g id="text_87">
     <text style="fill: #262626; font: 8.33px 'Arial', sans-serif; text-anchor: start" x="386.750122" y="346.298277" transform="rotate(-0 386.750122 346.298277)">Nests: 1</text>
    </g>
    <g id="line2d_93">
     <path d="M 363.426122 355.165822 
L 371.756122 355.165822 
L 380.086122 355.165822 
" style="fill: none; stroke: #2adddd; stroke-width: 1.5; stroke-linecap: round"/>
    </g>
    <g id="text_88">
     <text style="fill: #262626; font: 8.33px 'Arial', sans-serif; text-anchor: start" x="386.750122" y="358.081322" transform="rotate(-0 386.750122 358.081322)">Nests: 2</text>
    </g>
    <g id="line2d_94">
     <path d="M 363.426122 366.948867 
L 371.756122 366.948867 
L 380.086122 366.948867 
" style="fill: none; stroke: #d4dd80; stroke-width: 1.5; stroke-linecap: round"/>
    </g>
    <g id="text_89">
     <text style="fill: #262626; font: 8.33px 'Arial', sans-serif; text-anchor: start" x="386.750122" y="369.864367" transform="rotate(-0 386.750122 369.864367)">Nests: 4</text>
    </g>
    <g id="line2d_95">
     <path d="M 363.426122 378.731912 
L 371.756122 378.731912 
L 380.086122 378.731912 
" style="fill: none; stroke: #ff0000; stroke-width: 1.5; stroke-linecap: round"/>
    </g>
    <g id="text_90">
     <text style="fill: #262626; font: 8.33px 'Arial', sans-serif; text-anchor: start" x="386.750122" y="381.647412" transform="rotate(-0 386.750122 381.647412)">Nests: 8</text>
    </g>
   </g>
  </g>
  <g id="axes_6">
   <g id="patch_22">
    <path d="M 470.05 390.8 
L 637.2 390.8 
L 637.2 243.63375 
L 470.05 243.63375 
z
" style="fill: #ffffff"/>
   </g>
   <g id="matplotlib.axis_11">
    <g id="xtick_31">
     <g id="line2d_96">
      <g>
       <use xlink:href="#m0a7378e9e4" x="492.336667" y="395.8" style="fill: #262626; stroke: #262626; stroke-width: 0.8"/>
      </g>
     </g>
     <g id="text_91">
      <text style="fill: #262626; font: 8px 'Arial', sans-serif; text-anchor: middle" x="492.336667" y="408.52625" transform="rotate(-0 492.336667 408.52625)">5</text>
     </g>
    </g>
    <g id="xtick_32">
     <g id="line2d_97">
      <g>
       <use xlink:href="#m0a7378e9e4" x="520.195" y="395.8" style="fill: #262626; stroke: #262626; stroke-width: 0.8"/>
      </g>
     </g>
     <g id="text_92">
      <text style="fill: #262626; font: 8px 'Arial', sans-serif; text-anchor: middle" x="520.195" y="408.52625" transform="rotate(-0 520.195 408.52625)">10</text>
     </g>
    </g>
    <g id="xtick_33">
     <g id="line2d_98">
      <g>
       <use xlink:href="#m0a7378e9e4" x="548.053333" y="395.8" style="fill: #262626; stroke: #262626; stroke-width: 0.8"/>
      </g>
     </g>
     <g id="text_93">
      <text style="fill: #262626; font: 8px 'Arial', sans-serif; text-anchor: middle" x="548.053333" y="408.52625" transform="rotate(-0 548.053333 408.52625)">15</text>
     </g>
    </g>
    <g id="xtick_34">
     <g id="line2d_99">
      <g>
       <use xlink:href="#m0a7378e9e4" x="575.911667" y="395.8" style="fill: #262626; stroke: #262626; stroke-width: 0.8"/>
      </g>
     </g>
     <g id="text_94">
      <text style="fill: #262626; font: 8px 'Arial', sans-serif; text-anchor: middle" x="575.911667" y="408.52625" transform="rotate(-0 575.911667 408.52625)">20</text>
     </g>
    </g>
    <g id="xtick_35">
     <g id="line2d_100">
      <g>
       <use xlink:href="#m0a7378e9e4" x="603.77" y="395.8" style="fill: #262626; stroke: #262626; stroke-width: 0.8"/>
      </g>
     </g>
     <g id="text_95">
      <text style="fill: #262626; font: 8px 'Arial', sans-serif; text-anchor: middle" x="603.77" y="408.52625" transform="rotate(-0 603.77 408.52625)">25</text>
     </g>
    </g>
    <g id="xtick_36">
     <g id="line2d_101">
      <g>
       <use xlink:href="#m0a7378e9e4" x="631.628333" y="395.8" style="fill: #262626; stroke: #262626; stroke-width: 0.8"/>
      </g>
     </g>
     <g id="text_96">
      <text style="fill: #262626; font: 8px 'Arial', sans-serif; text-anchor: middle" x="631.628333" y="408.52625" transform="rotate(-0 631.628333 408.52625)">30</text>
     </g>
    </g>
    <g id="text_97">
     <text style="fill: #262626; font: 8px 'Arial', sans-serif; text-anchor: middle" x="553.625" y="419.8425" transform="rotate(-0 553.625 419.8425)">Epochs</text>
    </g>
   </g>
   <g id="matplotlib.axis_12">
    <g id="ytick_26">
     <g id="line2d_102">
      <g>
       <use xlink:href="#m77a8b3d8ba" x="465.05" y="390.148794" style="fill: #262626; stroke: #262626; stroke-width: 0.8"/>
      </g>
     </g>
     <g id="text_98">
      <text style="fill: #262626; font: 8px 'Arial', sans-serif; text-anchor: end" x="458.05" y="393.011919" transform="rotate(-0 458.05 393.011919)">0.0</text>
     </g>
    </g>
    <g id="ytick_27">
     <g id="line2d_103">
      <g>
       <use xlink:href="#m77a8b3d8ba" x="465.05" y="359.75467" style="fill: #262626; stroke: #262626; stroke-width: 0.8"/>
      </g>
     </g>
     <g id="text_99">
      <text style="fill: #262626; font: 8px 'Arial', sans-serif; text-anchor: end" x="458.05" y="362.617795" transform="rotate(-0 458.05 362.617795)">0.2</text>
     </g>
    </g>
    <g id="ytick_28">
     <g id="line2d_104">
      <g>
       <use xlink:href="#m77a8b3d8ba" x="465.05" y="329.360547" style="fill: #262626; stroke: #262626; stroke-width: 0.8"/>
      </g>
     </g>
     <g id="text_100">
      <text style="fill: #262626; font: 8px 'Arial', sans-serif; text-anchor: end" x="458.05" y="332.223672" transform="rotate(-0 458.05 332.223672)">0.4</text>
     </g>
    </g>
    <g id="ytick_29">
     <g id="line2d_105">
      <g>
       <use xlink:href="#m77a8b3d8ba" x="465.05" y="298.966424" style="fill: #262626; stroke: #262626; stroke-width: 0.8"/>
      </g>
     </g>
     <g id="text_101">
      <text style="fill: #262626; font: 8px 'Arial', sans-serif; text-anchor: end" x="458.05" y="301.829549" transform="rotate(-0 458.05 301.829549)">0.6</text>
     </g>
    </g>
    <g id="ytick_30">
     <g id="line2d_106">
      <g>
       <use xlink:href="#m77a8b3d8ba" x="465.05" y="268.572301" style="fill: #262626; stroke: #262626; stroke-width: 0.8"/>
      </g>
     </g>
     <g id="text_102">
      <text style="fill: #262626; font: 8px 'Arial', sans-serif; text-anchor: end" x="458.05" y="271.435426" transform="rotate(-0 458.05 271.435426)">0.8</text>
     </g>
    </g>
    <g id="text_103">
     <text style="fill: #262626; font: 8px 'Arial', sans-serif; text-anchor: middle" x="441.34" y="317.216875" transform="rotate(-90 441.34 317.216875)">IoU Score</text>
    </g>
   </g>
   <g id="line2d_107">
    <path d="M 470.05 384.110625 
L 475.621667 383.01626 
L 481.193333 381.786461 
L 486.765 380.096673 
L 492.336667 377.789386 
L 497.908333 373.24872 
L 503.48 368.089495 
L 509.051667 355.595231 
L 514.623333 345.129883 
L 520.195 324.174635 
L 525.766667 310.130596 
L 531.338333 298.479065 
L 536.91 290.010397 
L 542.481667 287.244308 
L 548.053333 273.680174 
L 553.625 268.251903 
L 559.196667 274.887318 
L 564.768333 273.810829 
L 570.34 265.215709 
L 575.911667 262.229643 
L 581.483333 259.409306 
L 587.055 257.391683 
L 592.626667 256.336145 
L 598.198333 256.78399 
L 603.77 255.597661 
L 609.341667 254.140204 
L 614.913333 253.714661 
L 620.485 254.06273 
L 626.056667 254.735098 
L 631.628333 253.885915 
" clip-path="url(#pc9ae95f13c)" style="fill: none; stroke: #8000ff; stroke-width: 1.5; stroke-linecap: round"/>
   </g>
   <g id="line2d_108">
    <path d="M 470.05 383.717833 
L 475.621667 381.982486 
L 481.193333 380.323174 
L 486.765 377.443879 
L 492.336667 373.999703 
L 497.908333 366.588088 
L 503.48 355.572794 
L 509.051667 339.043958 
L 514.623333 328.614453 
L 520.195 321.646101 
L 525.766667 307.444518 
L 531.338333 291.414465 
L 536.91 279.71805 
L 542.481667 271.034315 
L 548.053333 267.8053 
L 553.625 281.696886 
L 559.196667 272.879578 
L 564.768333 267.149236 
L 570.34 268.329051 
L 575.911667 261.653472 
L 581.483333 261.029248 
L 587.055 256.492888 
L 592.626667 255.825048 
L 598.198333 254.458499 
L 603.77 253.997094 
L 609.341667 253.313485 
L 614.913333 252.786418 
L 620.485 252.377596 
L 626.056667 252.162293 
L 631.628333 251.946201 
" clip-path="url(#pc9ae95f13c)" style="fill: none; stroke: #2adddd; stroke-width: 1.5; stroke-linecap: round"/>
   </g>
   <g id="line2d_109">
    <path d="M 470.05 383.364726 
L 475.621667 382.081224 
L 481.193333 380.305599 
L 486.765 377.56552 
L 492.336667 373.220861 
L 497.908333 366.193544 
L 503.48 357.43554 
L 509.051667 345.628729 
L 514.623333 334.15597 
L 520.195 313.240478 
L 525.766667 317.921986 
L 531.338333 291.528996 
L 536.91 299.130935 
L 542.481667 304.241464 
L 548.053333 281.61192 
L 553.625 290.917761 
L 559.196667 279.844104 
L 564.768333 270.775587 
L 570.34 268.239539 
L 575.911667 263.235542 
L 581.483333 265.711924 
L 587.055 263.724447 
L 592.626667 257.083488 
L 598.198333 256.798582 
L 603.77 255.720608 
L 609.341667 255.483538 
L 614.913333 257.234289 
L 620.485 255.842603 
L 626.056667 255.22019 
L 631.628333 254.817682 
" clip-path="url(#pc9ae95f13c)" style="fill: none; stroke: #d4dd80; stroke-width: 1.5; stroke-linecap: round"/>
   </g>
   <g id="line2d_110">
    <path d="M 470.05 383.581117 
L 475.621667 382.292029 
L 481.193333 380.602462 
L 486.765 376.957844 
L 492.336667 372.752176 
L 497.908333 363.75765 
L 503.48 349.225098 
L 509.051667 334.47584 
L 514.623333 316.990885 
L 520.195 301.963085 
L 525.766667 289.212862 
L 531.338333 275.566789 
L 536.91 275.720343 
L 542.481667 266.879421 
L 548.053333 279.32268 
L 553.625 261.733411 
L 559.196667 258.786394 
L 564.768333 257.859763 
L 570.34 255.711694 
L 575.911667 254.38963 
L 581.483333 253.651906 
L 587.055 253.218274 
L 592.626667 252.992029 
L 598.198333 252.17376 
L 603.77 253.486486 
L 609.341667 251.346153 
L 614.913333 250.847538 
L 620.485 251.070323 
L 626.056667 250.323125 
L 631.628333 250.327518 
" clip-path="url(#pc9ae95f13c)" style="fill: none; stroke: #ff0000; stroke-width: 1.5; stroke-linecap: round"/>
   </g>
   <g id="patch_23">
    <path d="M 465.05 390.148794 
L 465.05 268.572301 
" style="fill: none; stroke: #262626; stroke-width: 0.8; stroke-linejoin: miter; stroke-linecap: square"/>
   </g>
   <g id="patch_24">
    <path d="M 492.336667 395.8 
L 631.628333 395.8 
" style="fill: none; stroke: #262626; stroke-width: 0.8; stroke-linejoin: miter; stroke-linecap: square"/>
   </g>
   <g id="text_104">
    <text style="fill: #262626; font: 8px 'Arial', sans-serif; text-anchor: middle" x="553.625" y="237.63375" transform="rotate(-0 553.625 237.63375)">Concatenate with 16 filters</text>
   </g>
   <g id="legend_6">
    <g id="patch_25">
     <path d="M 574.160122 386.635 
L 631.369 386.635 
Q 633.035 386.635 633.035 384.969 
L 633.035 338.669819 
Q 633.035 337.003819 631.369 337.003819 
L 574.160122 337.003819 
Q 572.494122 337.003819 572.494122 338.669819 
L 572.494122 384.969 
Q 572.494122 386.635 574.160122 386.635 
z
" style="fill: #ffffff; opacity: 0.8; stroke: #cccccc; stroke-linejoin: miter"/>
    </g>
    <g id="line2d_111">
     <path d="M 575.826122 343.382777 
L 584.156122 343.382777 
L 592.486122 343.382777 
" style="fill: none; stroke: #8000ff; stroke-width: 1.5; stroke-linecap: round"/>
    </g>
    <g id="text_105">
     <text style="fill: #262626; font: 8.33px 'Arial', sans-serif; text-anchor: start" x="599.150122" y="346.298277" transform="rotate(-0 599.150122 346.298277)">Nests: 1</text>
    </g>
    <g id="line2d_112">
     <path d="M 575.826122 355.165822 
L 584.156122 355.165822 
L 592.486122 355.165822 
" style="fill: none; stroke: #2adddd; stroke-width: 1.5; stroke-linecap: round"/>
    </g>
    <g id="text_106">
     <text style="fill: #262626; font: 8.33px 'Arial', sans-serif; text-anchor: start" x="599.150122" y="358.081322" transform="rotate(-0 599.150122 358.081322)">Nests: 2</text>
    </g>
    <g id="line2d_113">
     <path d="M 575.826122 366.948867 
L 584.156122 366.948867 
L 592.486122 366.948867 
" style="fill: none; stroke: #d4dd80; stroke-width: 1.5; stroke-linecap: round"/>
    </g>
    <g id="text_107">
     <text style="fill: #262626; font: 8.33px 'Arial', sans-serif; text-anchor: start" x="599.150122" y="369.864367" transform="rotate(-0 599.150122 369.864367)">Nests: 4</text>
    </g>
    <g id="line2d_114">
     <path d="M 575.826122 378.731912 
L 584.156122 378.731912 
L 592.486122 378.731912 
" style="fill: none; stroke: #ff0000; stroke-width: 1.5; stroke-linecap: round"/>
    </g>
    <g id="text_108">
     <text style="fill: #262626; font: 8.33px 'Arial', sans-serif; text-anchor: start" x="599.150122" y="381.647412" transform="rotate(-0 599.150122 381.647412)">Nests: 8</text>
    </g>
   </g>
  </g>
  <g id="text_109">
   <text style="fill: #262626; font: 10px 'Arial', sans-serif; text-anchor: middle" x="324" y="15.919688" transform="rotate(-0 324 15.919688)">Iou scores for Spleen dataset</text>
  </g>
 </g>
 <defs>
  <clipPath id="p44746caa96">
   <rect x="45.25" y="43.47375" width="167.15" height="147.16625"/>
  </clipPath>
  <clipPath id="pb25a724ed5">
   <rect x="257.65" y="43.47375" width="167.15" height="147.16625"/>
  </clipPath>
  <clipPath id="pa994f8bd5c">
   <rect x="470.05" y="43.47375" width="167.15" height="147.16625"/>
  </clipPath>
  <clipPath id="pca07881dd0">
   <rect x="45.25" y="243.63375" width="167.15" height="147.16625"/>
  </clipPath>
  <clipPath id="p319de34933">
   <rect x="257.65" y="243.63375" width="167.15" height="147.16625"/>
  </clipPath>
  <clipPath id="pc9ae95f13c">
   <rect x="470.05" y="243.63375" width="167.15" height="147.16625"/>
  </clipPath>
 </defs>
</svg>
